<?xml version="1.0" encoding="UTF-8" standalone="no"?>
<!-- Created with Inkscape (http://www.inkscape.org/) -->
<svg
   xmlns:svg="http://www.w3.org/2000/svg"
   xmlns="http://www.w3.org/2000/svg"
   version="1.0"
   width="661.38"
   height="700"
   id="svg2720">
  <defs
     id="defs2722">
    <linearGradient
       x1="0"
       y1="0"
       x2="1"
       y2="0"
       id="linearGradient107"
       gradientUnits="userSpaceOnUse"
       gradientTransform="matrix(91.248276,-71.290955,-71.290955,-91.248261,337.94238,254.43262)"
       spreadMethod="pad">
      <stop
         id="stop109"
         style="stop-color:#ffffff;stop-opacity:1"
         offset="0" />
      <stop
         id="stop111"
         style="stop-color:#aed8eb;stop-opacity:1"
         offset="0.82999998" />
      <stop
         id="stop113"
         style="stop-color:#aed8eb;stop-opacity:1"
         offset="0.82999998" />
      <stop
         id="stop115"
         style="stop-color:#a4d3e8;stop-opacity:1"
         offset="1" />
    </linearGradient>
    <linearGradient
       x1="0"
       y1="0"
       x2="1"
       y2="0"
       id="linearGradient83"
       gradientUnits="userSpaceOnUse"
       gradientTransform="matrix(71.029968,-33.121811,-33.121811,-71.029953,314.99023,193.4043)"
       spreadMethod="pad">
      <stop
         id="stop85"
         style="stop-color:#ffffff;stop-opacity:1"
         offset="0" />
      <stop
         id="stop87"
         style="stop-color:#abd7eb;stop-opacity:1"
         offset="0.80000001" />
      <stop
         id="stop89"
         style="stop-color:#abd7eb;stop-opacity:1"
         offset="0.80000001" />
      <stop
         id="stop91"
         style="stop-color:#a4d3e8;stop-opacity:1"
         offset="1" />
    </linearGradient>
    <linearGradient
       x1="0"
       y1="0"
       x2="1"
       y2="0"
       id="linearGradient59"
       gradientUnits="userSpaceOnUse"
       gradientTransform="matrix(91.76828,71.697235,71.697235,-91.768265,120.97168,180.4043)"
       spreadMethod="pad">
      <stop
         id="stop61"
         style="stop-color:#a4d3e8;stop-opacity:1"
         offset="0" />
      <stop
         id="stop63"
         style="stop-color:#b0d9e9;stop-opacity:1"
         offset="0.13" />
      <stop
         id="stop65"
         style="stop-color:#ffffff;stop-opacity:1"
         offset="0.28" />
      <stop
         id="stop67"
         style="stop-color:#ffffff;stop-opacity:1"
         offset="1" />
    </linearGradient>
    <linearGradient
       x1="0"
       y1="0"
       x2="1"
       y2="0"
       id="linearGradient35"
       gradientUnits="userSpaceOnUse"
       gradientTransform="matrix(79.751175,42.404465,42.404465,-79.751175,164.03271,153.83008)"
       spreadMethod="pad">
      <stop
         id="stop37"
         style="stop-color:#a4d3e8;stop-opacity:1"
         offset="0" />
      <stop
         id="stop39"
         style="stop-color:#a9d4e8;stop-opacity:1"
         offset="0.2" />
      <stop
         id="stop41"
         style="stop-color:#ffffff;stop-opacity:1"
         offset="0.30000001" />
      <stop
         id="stop43"
         style="stop-color:#ffffff;stop-opacity:1"
         offset="1" />
    </linearGradient>
    <clipPath
       id="clipPath17">
      <path
         d="M 0,792 L 612,792 L 612,0 L 0,0 L 0,792 z"
         id="path19" />
    </clipPath>
  </defs>
  <g
     transform="translate(-49.307936,-139.50502)"
     id="layer1">
    <g
       transform="matrix(1.4569334,0,0,-1.4569334,-20.954134,1019.3671)"
       id="g13">
      <g
         clip-path="url(#clipPath17)"
         id="g15">
        <path
           d="M 199.385,130.077 L 162.022,185.022 L 132.352,199.308 L 104.879,231.176 L 55.429,341.066 L 57.626,420.187 L 110.374,521.286 L 162.022,568.539 L 214.769,589.417 L 281.802,596.011 L 325.758,592.714 L 363.121,581.725 L 397.187,557.549 L 441.143,521.286 L 468.615,478.429 L 482.901,446.561 L 491.692,400.407 L 489.494,354.253 L 474.11,298.209 L 457.626,264.143 L 441.143,227.879 L 425.758,213.594 L 407.077,197.11 L 388.396,188.318 L 381.802,179.527 L 371.912,165.242 L 359.824,142.165 L 315.868,163.044 L 273.011,165.242 L 229.055,157.55 L 199.385,130.077 z"
           id="path21"
           style="fill:#ffffff;fill-opacity:1;fill-rule:nonzero;stroke:none" />
        <g
           id="g23">
          <g
             id="g25">
            <g
               id="g31">
              <g
                 id="g33">
                <path
                   d="M 242.014,185.068 C 237.838,157.42 190.895,169.517 182.183,142.156 C 178.799,148.42 171.167,156.412 169.727,163.181 C 168.071,192.916 246.262,212.788 242.014,185.068"
                   id="path45"
                   style="fill:url(#linearGradient35);stroke:none" />
              </g>
            </g>
          </g>
        </g>
        <g
           id="g47">
          <g
             id="g49">
            <g
               id="g55">
              <g
                 id="g57">
                <path
                   d="M 219.983,218.692 C 202.559,223.517 129.263,225.028 127.463,195.292 C 122.639,199.612 115.583,204.076 113.135,209.908 C 118.535,246.053 203.783,227.836 226.031,219.772 C 224.59,219.772 221.422,219.124 219.983,218.692"
                   id="path69"
                   style="fill:url(#linearGradient59);stroke:none" />
              </g>
            </g>
          </g>
        </g>
        <g
           id="g71">
          <g
             id="g73">
            <g
               id="g79">
              <g
                 id="g81">
                <path
                   d="M 317.434,188.148 C 316.642,214.428 388.138,195.78 379.713,163.164 C 377.266,158.34 372.585,150.637 370.209,145.813 C 365.025,172.668 318.226,161.94 317.434,188.148"
                   id="path93"
                   style="fill:url(#linearGradient83);stroke:none" />
              </g>
            </g>
          </g>
        </g>
        <g
           id="g95">
          <g
             id="g97">
            <g
               id="g103">
              <g
                 id="g105">
                <path
                   d="M 418.233,193.116 C 418.233,212.557 405.489,216.805 386.77,220.26 C 367.978,222.709 347.817,226.957 329.457,221.7 C 326.938,221.7 325.354,221.484 325.354,222.78 L 332.697,225.948 C 349.905,231.996 431.841,246.324 434.001,214.572 C 432.993,206.508 423.417,199.092 418.233,193.116"
                   id="path117"
                   style="fill:url(#linearGradient107);stroke:none" />
              </g>
            </g>
          </g>
        </g>
        <path
           d="M 259.737,318.625 C 281.641,322.715 305.979,317.681 327.929,300.124 L 323.669,299.549 L 323.67,299.549 L 254.846,290.243 L 251.88,291.683 L 250.176,289.611 L 228.097,286.627 L 225.432,290.314 L 221.383,287.205 L 220.11,285.547 L 204.313,283.411 C 217.452,301.067 237.833,314.535 259.737,318.625"
           id="path119"
           style="fill:#fff200;fill-opacity:1;fill-rule:evenodd;stroke:none" />
        <path
           d="M 447.198,232.854 C 444.478,236.942 441.89,238.675 437.642,241.509 C 442.573,246.44 443.183,256.354 443.183,262.704 C 467.776,280.22 445.034,292.917 440.834,281.058 C 435.924,287.561 436.956,298.354 445.362,300.743 C 441.496,308.174 447.205,316.123 456.856,315.426 C 451.55,308.258 458.959,300.493 466.571,303.354 C 474.184,306.214 472.136,326.301 468.266,333.396 C 473.566,339.179 478.887,344.811 476.959,354.931 C 475.995,357.821 476.253,361.631 470.73,362.464 C 465.208,363.297 460.375,358.795 462.258,353.151 C 451.587,356.859 454.127,367.35 458.275,372.651 C 453.484,377.104 456.394,391.206 463.885,388.827 C 463.885,376.184 475.557,374.84 478.667,386.354 C 478.667,396.956 473.8,400.991 467.082,408.207 C 469.973,413.508 473.722,420.475 472.275,427.702 C 470.909,436.93 454.02,440.412 456.466,425.449 C 449.452,423.884 443.944,433.513 447.344,441.279 C 445.105,440.219 436.967,454.5 448.137,459.821 C 446.915,451.271 457.436,450.691 461.292,458.404 C 464.184,463.704 461.748,469.115 458.374,472.969 C 454.52,478.271 448.356,481.388 442.574,484.279 C 444.02,494.881 444.582,505.041 436.873,509.858 C 424.371,513.641 418.708,501.974 429.779,495.647 C 429.299,494.202 423.552,490.966 421.625,491.448 C 415.843,492.412 410.664,501.246 409.522,504.902 C 408.424,508.418 390.348,511.675 398.676,525.483 C 404.639,521.641 410.185,520.995 411.832,530.418 C 413.479,539.842 398.177,541.626 390.686,542.458 C 388.276,550.867 384.09,559.535 374.456,562.627 C 368.672,563.11 366.063,559.835 363.653,555.981 C 362.254,548.984 365.582,548.426 370.4,546.018 C 362.85,534.641 353.338,546.09 350.943,549.333 C 344.337,548.978 332.879,547.89 334.582,561.453 C 344.818,558.105 350.471,570.821 340.805,575.996 C 333.095,579.851 325.314,575.267 318.086,573.339 C 311.821,580.086 304.583,587.686 292.055,584.794 C 282.618,580.582 285.267,566.735 295.512,568.789 C 294.837,559.72 284.009,558.679 276.871,563.987 C 271.922,559.038 257.301,558.782 258.239,569.161 C 266.658,569.12 269.928,581.961 262.078,583.303 C 254.228,584.644 244.659,577.841 240.683,571.025 C 234.418,574.398 226.039,577.565 217.365,576.121 C 213.51,574.675 209.265,570.793 210.599,564.611 C 211.934,558.429 217.228,561.469 220.598,561.435 C 222.108,550.863 212.647,549.189 204.825,549.72 C 201.499,538.513 190.149,540.322 186.46,545.91 C 192.045,546.841 196.119,551.063 193.459,556.387 C 191.53,559.76 190.171,561.103 186.316,561.103 C 176.252,560.332 170.859,550.394 169.64,541.829 C 160.001,543.275 147.294,543.369 141.993,536.141 C 134.107,528.082 146.302,517.038 154.909,526.566 C 163.119,512.582 149.981,511.377 144.099,509.439 C 143.273,500.317 136.783,489.107 127.159,498.408 C 136.814,506.266 124.684,516.509 117.197,509.263 C 109.71,502.016 111.044,493.313 110.993,486.085 C 104.003,484.155 95.917,480.732 92.048,475.459 C 87.154,464.033 99.614,453.352 106.193,466.517 C 114.693,462.68 106.54,447.067 102.212,447.045 C 104.724,441.061 104.297,427.084 92.272,429.339 C 97.255,442.432 80.339,450.094 76.352,435.978 C 73.462,427.786 75.892,419.37 79.747,413.587 C 72.438,406.874 64.822,398.05 67.983,386.742 C 69.428,385.297 72.551,383.229 74.478,382.265 C 81.155,380.729 83.078,389.77 83.681,394.282 C 97.58,387.646 87.006,376.407 88.883,373.361 C 93.175,368.353 93.672,355.325 85.501,353.282 C 85.021,356.656 84.488,362.173 79.234,362.912 C 73.98,363.651 67.968,359.53 70.047,351.566 C 72.126,343.604 73.515,343.731 79.506,338.295 C 77.747,332.43 73.721,327.039 75.211,317.354 C 78.584,313.981 79.09,309.691 86.318,311.619 C 89.382,313.058 92.364,314.724 90.715,322.832 C 94.57,323.314 99.468,318.113 100.913,315.221 C 102.84,311.366 101.047,308.81 106.051,303.86 C 108.942,301.451 110.889,297.807 110.889,293.47 C 110.889,291.543 109.732,287.53 109.25,286.084 C 105.698,287.834 100.752,292.716 94.738,286.274 C 88.724,279.832 100.602,265.179 111.006,265.008 C 109.56,257.779 112.147,248.928 114.076,242.181 C 110.389,239.969 102.998,237.802 101.503,233.316 C 81.099,262.027 67.387,278.92 55.766,327.011 C 40.91,388.484 55.143,448.751 86.369,498.885 C 128.832,567.063 211.335,609.257 297.104,601.117 C 425.863,587.567 512.982,477.818 497.775,349.891 C 492.786,312.053 474.364,261.637 447.198,232.854"
           id="path121"
           style="fill:#fbbd09;fill-opacity:1;fill-rule:evenodd;stroke:none" />
        <path
           d="M 435.172,539.498 C 499.262,477.335 520.464,374.214 485.286,291.332 C 476.612,270.13 465.048,251.337 450.591,233.025 C 449.628,232.543 449.146,230.616 448.183,230.616 C 447.7,232.063 447.219,233.025 446.736,234.471 C 448.183,235.917 449.628,237.845 451.073,239.289 C 474.686,270.13 491.069,306.271 496.852,350.121 C 505.043,419.028 482.878,474.445 449.146,518.296 C 423.606,551.544 387.467,573.711 347.952,588.649 C 332.05,593.95 315.185,597.805 296.873,599.732 C 274.226,601.66 248.205,600.214 227.966,595.395 C 175.441,582.867 132.072,554.918 100.269,514.439 C 94.004,505.285 86.776,496.611 81.476,486.973 C 57.864,445.049 42.926,384.815 57.382,327.473 C 63.164,298.561 75.692,273.503 90.632,250.373 C 94.004,245.073 98.341,240.254 102.196,234.471 C 100.961,233.235 100.762,231.591 99.787,230.616 C 99.378,233.231 87.792,246.86 85.813,250.373 C 63.164,286.995 48.226,328.437 48.226,374.214 C 48.226,446.977 82.921,512.994 132.072,552.509 C 173.514,587.204 232.303,608.406 295.909,603.105 C 349.88,598.287 396.621,575.638 435.172,539.498"
           id="path123"
           style="fill:#e08517;fill-opacity:1;fill-rule:evenodd;stroke:none" />
        <path
           d="M 439.288,241.761 C 438.323,242.241 437.381,242.221 436.416,242.703 C 440.357,250.579 440.125,255.222 440.954,264.348 C 446.254,267.238 453.954,270.192 453.273,278.804 C 452.594,287.415 443.029,285.945 442.073,277.968 C 438.315,279.479 431.592,293.657 442.729,301.522 C 440.939,312.305 451.987,320.646 459.356,316.264 C 455.411,313.017 455.917,303.477 465.176,304.7 C 474.434,305.925 470.741,328.652 465.657,334.377 C 469.202,338.146 477.581,341.748 474.686,356.386 C 472.706,366.386 460.119,360.859 464.229,352.009 C 452.52,352.77 450.422,367.982 456.556,371.775 C 449.2,385.409 461.456,393.982 466.666,391.336 C 463.353,380.438 472.884,376.806 476.425,384.71 C 479.967,392.614 470.617,403.969 464.566,407.464 C 467.729,412.995 473.057,422.422 469.792,429.039 C 466.527,435.656 454.37,435.526 459.438,423.936 C 448.224,422.457 443.687,433.211 445.137,439.975 C 438.934,446.632 439.176,459.807 449.983,463.077 C 448.003,455.636 457.815,450.584 460.593,461.105 C 463.369,471.625 445.363,481.513 440.472,482.636 C 440.108,486.483 444.257,506.054 435.13,508.877 C 426.003,511.701 421.865,499.97 432.763,497.475 C 427.994,482.837 408.187,491.654 408.187,504.065 C 391.951,506.095 391.26,526.583 399.995,529.86 C 399.995,521.727 411.086,522.425 411.188,531.495 C 411.288,540.564 394.375,540.992 388.43,539.016 C 388.002,548.769 383.334,557.329 374.399,559.895 C 365.465,562.459 359.654,548.861 373.238,548.106 C 368.997,537.503 358.04,537.73 350.389,547.009 C 340.577,546.483 329.704,551.994 334.371,564.539 C 340.229,558.739 348.027,565.693 344.125,571.698 C 340.223,577.702 323.428,574.405 317.621,570.53 C 313.685,576.978 300.208,585.929 292.639,582.566 C 285.071,579.204 288.52,566.496 296.06,572.09 C 300.874,560.909 287.962,556.005 277.107,561.759 C 270.688,557.731 254.024,558.333 256.775,572.548 C 266.583,567.411 270.144,584.492 256.406,582.076 C 250.826,581.095 246.089,574.746 241.27,568 C 236.11,570.965 220.934,579.885 213.435,570.907 C 209.388,566.063 214.796,558.42 221.337,564.763 C 226.653,555.914 217.322,545.99 206.094,547.777 C 203.782,538.879 187.73,535.533 184.389,547.414 C 197.079,548.423 192.918,560.111 185.542,559.247 C 178.166,558.382 171.694,548.296 170.831,539.008 C 164.084,540.912 155.628,540.342 148.59,538.637 C 141.553,536.933 139.255,528.461 143.876,525.415 C 148.498,522.369 152.598,526.434 154.041,529.78 C 158.283,527.968 160.042,521.249 158.878,516.367 C 157.697,511.409 151.461,509.131 146.529,508.175 C 146.047,503.356 143.262,496.741 139.234,494.405 C 135.206,492.069 128.996,492.852 125.08,498.276 C 129.204,500.641 131.84,508.249 126.1,509.731 C 120.36,511.213 117.563,508.317 115.406,504.028 C 113.249,499.739 111.08,490.355 113.279,484.176 C 108.321,484.441 96.774,480.068 94.283,474.755 C 91.792,469.441 93.499,463.386 98.215,462.17 C 102.932,460.955 104.316,467.267 104.797,470.158 C 114.484,464.966 113.139,454.65 104.605,446.496 C 107.029,438.191 103.361,423.984 89.923,427.702 C 91.864,431.711 92.997,441.115 85.885,441.168 C 78.774,441.222 77.964,434.243 77.621,429.148 C 77.278,424.053 80.206,415.718 82.977,412.702 C 74.384,408.399 63.253,390.904 73.543,385.192 C 81.063,381.018 83.91,392.938 79.548,395.416 C 84.13,396.494 88.893,394.802 91.481,390.161 C 94.07,385.521 91.42,377.656 90.207,374.713 C 91.316,372.107 94.122,366.859 93.798,362.392 C 93.474,357.924 89.976,352.206 84.074,350.604 C 85.44,356.817 79.958,363.889 74.212,359.987 C 68.465,356.086 72.954,344.253 83.403,339.52 C 79.297,333.767 75.257,324.533 78.148,318.367 C 82.954,308.115 95.667,314.448 86.295,325.064 C 90.149,326.027 95.958,324.678 99.908,321.334 C 103.858,317.99 104.708,313.744 104.708,307.48 C 112.525,301.418 116.38,292.631 108.565,281.856 C 107.291,288.361 95.549,293.565 94.866,280.761 C 96.731,268.632 111.993,267.791 114.244,266.734 C 110.87,259.506 113.659,250.548 115.586,243.319 C 114.508,242.241 113.417,242.363 112.316,242.181 C 110.388,248.928 108.46,257.119 109.907,264.348 C 101.574,265.028 89.44,270.356 91.432,283.809 C 92.678,292.229 104.547,296.011 108.694,287.387 C 111.952,296.625 107.502,301.413 100.871,305.042 C 102.02,310.03 101.308,319.3 92.24,321.528 C 96.814,308.129 78.318,304.501 74.29,319.3 C 72.66,325.29 77.338,337.038 79.066,338.075 C 72.568,341.412 64.951,351.879 70.166,360.043 C 75.381,368.208 86.065,365.596 86.683,355.476 C 95.128,362.108 87.665,372.334 86.848,374.378 C 87.602,376.594 94.253,388.883 84.327,392.626 C 85.182,388.591 82.864,382.55 78.912,381.65 C 71.87,380.046 65.661,385.115 66.439,394.031 C 67.097,401.541 72.608,409.096 78.575,413.492 C 74.946,419.5 73.638,426.388 74.669,433.209 C 75.701,440.031 80.006,444.08 85.428,444.258 C 90.849,444.438 96.359,440.196 93.636,429.797 C 103.711,430.575 103.374,442.557 100.656,447.752 C 103.162,448.254 112.663,458.596 106.421,465.379 C 105.318,461.462 102.927,458.281 97.072,459.233 C 91.218,460.186 87.941,470.032 91.733,476.063 C 95.524,482.094 101.921,484.958 109.708,487.069 C 108.257,494.297 110.42,501.989 113.174,506.818 C 115.928,511.646 122.437,514.635 128.575,511.682 C 134.714,508.729 131.633,500.105 128.887,497.946 C 131.385,495.551 134.935,494.976 138.308,497.377 C 141.68,499.779 143.241,505.465 143.722,510.765 C 147.198,511.385 153.943,512.49 155.61,516.525 C 157.276,520.561 155.779,524.552 154.909,525.523 C 151.682,519.744 141.322,520.457 139.301,525.523 C 137.279,530.589 138.936,535.689 142.842,539.08 C 146.749,542.47 158.178,544.204 168.696,542.679 C 170.002,550.166 176.112,561.548 186.316,562.146 C 196.521,562.742 199.81,546.948 188.065,545.374 C 195.449,537.927 203.428,546.354 204.448,550.953 C 210.142,548.726 221.118,553.263 220.502,560.961 C 212.731,556.045 208.475,563.954 209.09,568.119 C 209.705,572.284 212.94,575.403 218.686,577.354 C 224.431,579.304 234.144,575.417 240.494,571.783 C 243.868,577.565 249.657,583.934 255.242,584.985 C 273.018,588.333 270.806,566.421 258.996,568.877 C 259.473,560.825 272.341,561.329 276.965,565.314 C 283.834,561.151 293.818,560.856 294.083,567.791 C 283.014,565.911 282.021,583.583 292.41,586.026 C 302.527,588.406 312.293,581.804 318.557,575.058 C 325.619,578.04 340.909,580.904 346.246,573.956 C 351.583,567.007 345.574,556.291 335.945,560.412 C 334.582,553.413 344.962,548.706 351.706,550.483 C 354.66,545.829 362.002,538.949 369.51,546.146 C 356.834,548.208 362.582,565.011 373.565,563.267 C 384.549,561.522 388.911,552.509 391.321,543.353 C 397.501,543.671 411.859,543.611 413.997,533.354 C 416.135,523.097 405.446,517.08 398.803,524.589 C 393.657,512.471 407.043,505.82 411.559,507.073 C 408.855,499.429 421.168,487.651 428.508,495.647 C 416.569,503.1 425.794,516.131 436.617,512.03 C 444.327,507.212 445.291,495.647 443.846,485.045 C 457.559,478.227 465.411,468.37 463.074,460.702 C 459.192,447.964 448.267,450.785 447.498,458.799 C 440.991,453.488 444.109,443.528 448.664,442.159 C 446.506,435.605 448.839,427.266 455.893,426.518 C 453.431,440.05 469.859,438.354 472.785,430.129 C 475.711,421.905 472.032,415.199 469.385,408.427 C 476.514,401.133 481.822,392.949 479.769,384.176 C 477.716,375.402 462.011,373.586 463.121,388.188 C 455.483,386.794 455.813,376.29 460.692,371.884 C 455.59,368.284 453.357,360.207 460.802,355.835 C 460.269,366.087 474.646,368.574 477.082,357.821 C 479.519,347.068 476.859,338.678 470.22,333.835 C 474.3,325.966 476.736,306.837 467.574,302.545 C 458.411,298.254 450.175,308.751 455.329,314.658 C 447.176,314.218 444.64,306.946 446,299.722 C 441.97,298.403 436.116,292.944 440.881,283.201 C 445.559,292.147 455.772,287.832 456.374,279.286 C 456.977,270.739 450.591,265.311 444.327,261.938 C 444.002,256.361 443.064,246.973 439.288,241.761"
           id="path125"
           style="fill:#e08517;fill-opacity:1;fill-rule:evenodd;stroke:none" />
        <path
           d="M 214.473,464.324 C 213.028,463.361 211.583,460.47 209.173,461.434 C 207.246,470.107 202.909,477.817 203.391,486.973 C 204.836,490.346 206.281,485.045 207.246,483.601 C 210.136,477.335 209.655,469.625 214.473,464.324"
           id="path127"
           style="fill:#fffffa;fill-opacity:1;fill-rule:evenodd;stroke:none" />
        <path
           d="M 248.688,469.143 C 245.313,468.18 247.241,470.589 247.723,472.517 C 251.578,476.372 249.168,470.589 248.688,469.143"
           id="path129"
           style="fill:#fffffa;fill-opacity:1;fill-rule:evenodd;stroke:none" />
        <path
           d="M 240.014,466.734 C 237.604,466.253 237.604,462.879 235.677,462.397 C 235.194,463.361 236.157,464.324 234.712,464.324 C 234.712,464.807 235.194,465.289 235.194,465.771 C 237.122,466.253 238.085,467.698 240.014,468.18 C 240.494,467.698 240.014,467.216 240.014,466.734"
           id="path131"
           style="fill:#fffffa;fill-opacity:1;fill-rule:evenodd;stroke:none" />
        <path
           d="M 250.615,466.253 C 250.132,464.807 247.723,465.771 246.277,465.771 C 245.795,466.253 244.35,466.253 245.313,467.216 C 247.241,467.216 249.65,467.216 250.615,466.253"
           id="path133"
           style="fill:#fffffa;fill-opacity:1;fill-rule:evenodd;stroke:none" />
        <path
           d="M 247.241,463.361 C 247.241,462.397 245.313,462.879 244.831,461.915 C 245.795,460.47 248.205,460.47 247.241,457.579 C 247.241,456.615 243.868,457.579 245.313,455.65 C 244.831,455.169 241.941,454.205 243.868,453.242 C 243.868,451.796 241.458,454.205 240.014,454.205 C 238.567,454.205 237.604,456.615 238.085,458.06 C 239.049,459.987 239.531,456.133 241.458,457.579 C 241.458,459.987 241.458,462.879 243.386,464.807 C 244.831,465.289 246.277,463.843 247.241,463.361"
           id="path135"
           style="fill:#fffffa;fill-opacity:1;fill-rule:evenodd;stroke:none" />
        <path
           d="M 322.894,410.836 C 321.637,410.836 320.808,411.209 319.755,411.947 C 321.328,411.947 322.071,410.836 322.894,410.836"
           id="path137"
           style="fill:#fffffa;fill-opacity:1;fill-rule:evenodd;stroke:none" />
        <path
           d="M 323.858,410.354 C 325.304,410.836 326.75,410.354 326.75,409.391 C 325.304,409.874 323.858,409.391 323.858,410.354"
           id="path139"
           style="fill:#fffffa;fill-opacity:1;fill-rule:evenodd;stroke:none" />
        <path
           d="M 282.899,403.607 C 285.791,398.79 291.573,398.308 293.018,392.525 C 291.09,391.079 287.718,389.634 286.753,386.742 C 288.681,386.26 289.646,388.67 291.573,388.188 L 293.018,388.188 L 294.464,388.188 C 299.764,384.333 300.247,377.105 306.511,374.214 C 306.511,367.949 312.775,365.541 312.775,359.277 C 313.739,356.868 314.702,354.94 314.702,353.013 C 310.848,350.121 311.33,357.35 308.438,358.313 C 305.065,360.24 300.729,362.168 297.354,363.614 C 299.282,373.731 289.646,374.214 285.791,381.923 C 283.862,383.853 283.381,387.225 280.489,388.67 C 280.007,388.67 280.489,389.151 280.489,389.151 C 282.899,389.151 285.309,390.116 287.718,390.598 C 286.753,393.007 283.862,393.971 281.935,395.898 C 279.525,397.344 277.598,392.044 274.708,395.416 C 273.744,394.934 273.744,394.453 272.78,393.971 C 271.817,394.934 270.853,396.863 270.372,398.308 C 270.372,404.572 278.08,403.127 280.489,406.982 C 282.899,407.464 281.454,404.572 282.899,403.607"
           id="path141"
           style="fill:#fffffa;fill-opacity:1;fill-rule:evenodd;stroke:none" />
        <path
           d="M 307.956,398.308 C 308.438,395.416 306.028,398.79 305.546,398.308 C 304.583,398.79 304.583,400.235 302.656,400.235 C 301.209,401.2 299.282,402.645 297.837,404.09 C 301.691,405.537 306.511,402.163 307.956,398.308"
           id="path143"
           style="fill:#fffffa;fill-opacity:1;fill-rule:evenodd;stroke:none" />
        <path
           d="M 417.343,454.688 L 418.787,451.796 L 373.829,388.993 L 373.027,391.144 L 417.343,454.688 z"
           id="path145"
           style="fill:#fff200;fill-opacity:1;fill-rule:evenodd;stroke:none" />
        <path
           d="M 371.292,393.665 L 369.956,396.09 L 414.134,461.124 L 415.623,457.644 L 371.292,393.665 z"
           id="path147"
           style="fill:#fff200;fill-opacity:1;fill-rule:evenodd;stroke:none" />
        <path
           d="M 421.789,445.623 L 376.132,384.602 L 375.168,386.529 L 420.506,448.848 L 421.789,445.623 z"
           id="path149"
           style="fill:#fff200;fill-opacity:1;fill-rule:evenodd;stroke:none" />
        <path
           d="M 418.303,422.397 L 373.164,364.097 L 372.537,367.16 L 417.187,425.628 L 418.303,422.397 z"
           id="path151"
           style="fill:#fff200;fill-opacity:1;fill-rule:evenodd;stroke:none" />
        <path
           d="M 421.521,412.444 L 375.093,356.531 L 374.782,359.445 L 419.92,415.672 L 421.521,412.444 z"
           id="path153"
           style="fill:#fff200;fill-opacity:1;fill-rule:evenodd;stroke:none" />
        <path
           d="M 423.768,402.153 L 372.203,343.375 L 370.6,345.784 L 422.808,405.546 L 423.768,402.153 z"
           id="path155"
           style="fill:#fff200;fill-opacity:1;fill-rule:evenodd;stroke:none" />
        <path
           d="M 256.879,396.863 C 257.361,393.971 253.024,397.826 253.987,394.453 C 252.542,394.453 252.06,395.416 252.06,396.38 C 252.06,397.826 253.987,397.826 254.952,398.308 C 255.915,398.79 256.879,397.344 256.879,396.863"
           id="path157"
           style="fill:#fffffa;fill-opacity:1;fill-rule:evenodd;stroke:none" />
        <path
           d="M 351.807,376.623 C 351.324,375.659 350.843,375.659 350.361,375.659 C 349.88,375.178 349.397,375.178 349.397,374.696 C 348.915,374.696 348.435,374.214 347.952,374.214 C 348.435,374.214 348.435,374.696 348.915,375.178 C 349.397,375.178 349.88,375.659 350.361,375.659 C 351.324,376.623 351.324,376.623 351.807,376.623"
           id="path159"
           style="fill:#fffffa;fill-opacity:1;fill-rule:evenodd;stroke:none" />
        <path
           d="M 346.987,373.731 C 346.507,372.769 346.024,372.769 346.024,372.769 L 346.024,373.731 C 346.507,373.731 346.987,374.214 346.987,373.731"
           id="path161"
           style="fill:#fffffa;fill-opacity:1;fill-rule:evenodd;stroke:none" />
        <path
           d="M 345.543,372.769 C 345.061,371.805 344.578,371.805 344.098,372.286 C 345.061,372.769 345.061,372.769 345.543,372.769"
           id="path163"
           style="fill:#fffffa;fill-opacity:1;fill-rule:evenodd;stroke:none" />
        <path
           d="M 235.194,362.168 C 237.122,360.24 236.64,357.35 236.64,354.94 C 233.267,351.566 237.122,346.749 235.677,342.893 C 232.303,338.556 231.339,333.738 230.857,328.437 C 230.375,327.955 229.893,326.027 228.448,326.51 C 227.003,329.401 227.966,333.256 227.003,336.146 C 224.593,335.184 225.556,331.328 223.629,329.882 C 222.666,333.256 219.774,338.075 215.437,340.483 C 213.028,341.447 209.173,342.412 208.208,345.302 L 208.691,345.302 C 211.583,344.339 214.473,343.375 217.847,342.412 C 219.774,342.893 225.076,336.628 223.146,342.412 C 221.702,350.604 213.992,353.013 207.728,355.903 C 206.281,356.868 204.354,358.313 203.872,360.24 C 208.691,357.831 215.437,357.831 220.256,354.458 C 222.184,356.868 218.81,359.277 218.81,361.687 C 217.847,363.132 216.883,363.614 215.919,365.06 C 215.437,365.06 214.955,365.06 214.473,365.541 C 214.473,365.541 213.992,366.504 214.473,366.504 C 215.437,366.985 215.437,365.541 216.4,365.541 C 216.883,365.06 217.847,364.577 218.329,364.097 C 227.966,362.649 225.556,351.086 229.893,344.82 C 232.303,349.157 234.23,353.494 232.303,358.795 C 229.893,362.649 228.448,367.468 226.521,371.322 C 230.375,368.913 231.339,364.577 235.194,362.168"
           id="path165"
           style="fill:#fffffa;fill-opacity:1;fill-rule:evenodd;stroke:none" />
        <path
           d="M 364.335,351.086 C 363.854,349.639 363.372,348.194 362.408,347.229 L 361.926,347.229 C 361.926,348.676 361.445,350.121 361.445,352.049 C 362.408,351.566 364.335,352.53 364.335,351.086"
           id="path167"
           style="fill:#fffffa;fill-opacity:1;fill-rule:evenodd;stroke:none" />
        <path
           d="M 359.998,343.857 C 359.517,342.412 359.517,341.447 359.035,340.002 C 358.554,338.556 357.108,338.075 355.662,338.075 C 356.144,340.002 358.554,341.447 359.517,343.857 L 359.998,343.857 z"
           id="path169"
           style="fill:#fffffa;fill-opacity:1;fill-rule:evenodd;stroke:none" />
        <path
           d="M 263.143,423.847 C 260.734,422.402 260.251,418.546 256.396,418.065 C 255.432,417.583 254.952,415.173 253.505,416.138 C 253.024,418.546 254.952,418.546 254.952,420.475 C 257.361,420.475 257.842,422.884 258.806,424.812 C 259.769,424.812 264.588,427.22 263.143,423.847"
           id="path171"
           style="fill:#fbbd0b;fill-opacity:1;fill-rule:evenodd;stroke:none" />
        <path
           d="M 341.206,377.587 C 336.869,377.105 335.424,372.286 331.087,371.805 C 328.678,369.877 323.858,370.842 320.967,370.842 L 320.967,372.286 C 325.786,371.322 329.158,373.249 332.05,374.696 C 333.978,377.587 337.351,379.033 341.206,379.033 C 341.688,378.068 340.724,378.551 341.206,377.587"
           id="path173"
           style="fill:#fbbd0b;fill-opacity:1;fill-rule:evenodd;stroke:none" />
        <path
           d="M 265.442,543.869 L 267.416,447.459 L 264.042,447.459 L 261.743,543.353 L 265.442,543.869 z"
           id="path175"
           style="fill:#fff200;fill-opacity:1;fill-rule:evenodd;stroke:none" />
        <path
           d="M 273.907,543.6 L 273.742,439.899 L 270.85,439.75 L 270.372,543.899 L 273.907,543.6 z"
           id="path177"
           style="fill:#fff200;fill-opacity:1;fill-rule:evenodd;stroke:none" />
        <path
           d="M 283.705,542.891 L 280.171,440.205 L 277.282,440.068 L 280.007,543.353 L 283.705,542.891 z"
           id="path179"
           style="fill:#fff200;fill-opacity:1;fill-rule:evenodd;stroke:none" />
        <path
           d="M 292.697,541.425 L 286.107,440.55 L 283.698,440.717 L 289.646,542.388 L 292.697,541.425 z"
           id="path181"
           style="fill:#fff200;fill-opacity:1;fill-rule:evenodd;stroke:none" />
        <path
           d="M 208.53,525.203 L 218.81,479.264 L 216.4,478.782 L 205.318,524.078 L 208.53,525.203 z"
           id="path183"
           style="fill:#fff200;fill-opacity:1;fill-rule:evenodd;stroke:none" />
        <path
           d="M 348.435,523.596 L 330.927,456.138 L 328.031,455.803 L 345.058,525.041 L 348.435,523.596 z"
           id="path185"
           style="fill:#fff200;fill-opacity:1;fill-rule:evenodd;stroke:none" />
        <path
           d="M 245.033,524.429 L 248.507,484.726 L 245.45,484.081 L 241.177,524.078 L 245.033,524.429 z"
           id="path187"
           style="fill:#fff200;fill-opacity:1;fill-rule:evenodd;stroke:none" />
        <path
           d="M 308.438,523.113 L 298.643,442.159 L 295.749,442.305 L 305.065,523.113 L 308.438,523.113 z"
           id="path189"
           style="fill:#fff200;fill-opacity:1;fill-rule:evenodd;stroke:none" />
        <path
           d="M 234.916,523.113 L 240.057,483.118 L 236.675,482.479 L 231.059,522.632 L 234.916,523.113 z"
           id="path191"
           style="fill:#fff200;fill-opacity:1;fill-rule:evenodd;stroke:none" />
        <path
           d="M 202.427,512.994 L 200.017,512.512 L 197.125,522.15 L 200.178,522.962 L 202.427,512.994 z"
           id="path193"
           style="fill:#fff200;fill-opacity:1;fill-rule:evenodd;stroke:none" />
        <path
           d="M 307.474,448.423 L 304.096,447.941 L 314.22,522.15 L 317.594,521.668 L 307.474,448.423 z"
           id="path195"
           style="fill:#fff200;fill-opacity:1;fill-rule:evenodd;stroke:none" />
        <path
           d="M 338.157,457.75 L 335.455,457.447 L 352.611,522.483 L 355.848,520.282 L 338.157,457.75 z"
           id="path197"
           style="fill:#fff200;fill-opacity:1;fill-rule:evenodd;stroke:none" />
        <path
           d="M 326.265,518.666 L 314.22,452.278 L 311.646,451.776 L 323.05,518.946 L 326.265,518.666 z"
           id="path199"
           style="fill:#fff200;fill-opacity:1;fill-rule:evenodd;stroke:none" />
        <path
           d="M 195.348,513.425 L 193.271,511.549 L 190.542,518.462 L 193.162,520.033 L 195.348,513.425 z"
           id="path201"
           style="fill:#fff200;fill-opacity:1;fill-rule:evenodd;stroke:none" />
        <path
           d="M 224.596,519.1 L 230.857,482.154 L 227.483,480.709 L 220.897,518.296 L 224.596,519.1 z"
           id="path203"
           style="fill:#fff200;fill-opacity:1;fill-rule:evenodd;stroke:none" />
        <path
           d="M 363.217,515.114 L 344.914,458.538 L 342.494,458.688 L 360.16,517.347 L 363.217,515.114 z"
           id="path205"
           style="fill:#fff200;fill-opacity:1;fill-rule:evenodd;stroke:none" />
        <path
           d="M 186.997,516.088 L 189.745,507.7 L 187.34,506.218 L 183.949,513.952 L 186.997,516.088 z"
           id="path207"
           style="fill:#fff200;fill-opacity:1;fill-rule:evenodd;stroke:none" />
        <path
           d="M 369.476,510.58 L 351.324,457.579 L 349.397,458.06 L 366.263,512.03 L 369.476,510.58 z"
           id="path209"
           style="fill:#fff200;fill-opacity:1;fill-rule:evenodd;stroke:none" />
        <path
           d="M 188.934,463.853 L 187.493,460.297 L 176.398,487.764 L 179.081,489.771 L 188.934,463.853 z"
           id="path211"
           style="fill:#fff200;fill-opacity:1;fill-rule:evenodd;stroke:none" />
        <path
           d="M 378.961,483.778 L 365.782,455.169 L 363.368,456.761 L 375.419,485.528 L 378.961,483.778 z"
           id="path213"
           style="fill:#fff200;fill-opacity:1;fill-rule:evenodd;stroke:none" />
        <path
           d="M 171.514,482.837 L 191.125,437.165 L 189.343,434.649 L 168.624,480.427 L 171.514,482.837 z"
           id="path215"
           style="fill:#fff200;fill-opacity:1;fill-rule:evenodd;stroke:none" />
        <path
           d="M 386.026,478.462 L 373.974,453.242 L 371.24,454.515 L 383.294,480.871 L 386.026,478.462 z"
           id="path217"
           style="fill:#fff200;fill-opacity:1;fill-rule:evenodd;stroke:none" />
        <path
           d="M 393.248,473.48 L 381.36,450.351 L 379.434,451.796 L 390.356,474.927 L 393.248,473.48 z"
           id="path219"
           style="fill:#fff200;fill-opacity:1;fill-rule:evenodd;stroke:none" />
        <path
           d="M 202.913,392.678 L 200.499,390.604 L 160.985,472.035 L 163.4,475.744 L 202.913,392.678 z"
           id="path221"
           style="fill:#fff200;fill-opacity:1;fill-rule:evenodd;stroke:none" />
        <path
           d="M 192.304,387.721 L 189.413,387.239 L 143.37,462.999 L 145.733,466.734 L 192.304,387.721 z"
           id="path223"
           style="fill:#fff200;fill-opacity:1;fill-rule:evenodd;stroke:none" />
        <path
           d="M 412.041,463.843 L 389.876,431.076 L 388.736,433.465 L 409.632,465.771 L 412.041,463.843 z"
           id="path225"
           style="fill:#fff200;fill-opacity:1;fill-rule:evenodd;stroke:none" />
        <path
           d="M 140.581,459.673 L 186.043,385.779 L 183.634,384.333 L 138.179,456.291 L 140.581,459.673 z"
           id="path227"
           style="fill:#fff200;fill-opacity:1;fill-rule:evenodd;stroke:none" />
        <path
           d="M 180.742,381.923 L 178.33,380.321 L 133.192,446.505 L 135.137,450.361 L 180.742,381.923 z"
           id="path229"
           style="fill:#fff200;fill-opacity:1;fill-rule:evenodd;stroke:none" />
        <path
           d="M 131.106,441.524 L 175.441,378.068 L 173.033,376.142 L 129.346,437.653 L 131.106,441.524 z"
           id="path231"
           style="fill:#fff200;fill-opacity:1;fill-rule:evenodd;stroke:none" />
        <path
           d="M 213.352,397.555 L 211.103,396.582 L 207.417,407.503 L 209.854,409.043 L 213.352,397.555 z"
           id="path233"
           style="fill:#fff200;fill-opacity:1;fill-rule:evenodd;stroke:none" />
        <path
           d="M 203.226,409.283 L 208.538,395.293 L 205.964,394.156 L 199.535,408.283 L 203.226,409.283 z"
           id="path235"
           style="fill:#fff200;fill-opacity:1;fill-rule:evenodd;stroke:none" />
        <path
           d="M 132.71,406.187 L 164.359,369.395 L 162.115,367.625 L 131.591,402.163 L 132.71,406.187 z"
           id="path237"
           style="fill:#fff200;fill-opacity:1;fill-rule:evenodd;stroke:none" />
        <path
           d="M 160.018,363.943 L 158.254,361.204 L 129.012,392.044 L 129.818,395.908 L 160.018,363.943 z"
           id="path239"
           style="fill:#fff200;fill-opacity:1;fill-rule:evenodd;stroke:none" />
        <path
           d="M 436.592,390.212 L 369.951,328.437 L 368.026,330.374 L 435.541,394.107 L 436.592,390.212 z"
           id="path241"
           style="fill:#fff200;fill-opacity:1;fill-rule:evenodd;stroke:none" />
        <path
           d="M 438.334,382.414 L 373.315,325.697 L 371.551,327.446 L 437.584,386.43 L 438.334,382.414 z"
           id="path243"
           style="fill:#fff200;fill-opacity:1;fill-rule:evenodd;stroke:none" />
        <path
           d="M 156.648,357.831 L 155.532,354.935 L 127.248,381.931 L 127.411,386.276 L 156.648,357.831 z"
           id="path245"
           style="fill:#fff200;fill-opacity:1;fill-rule:evenodd;stroke:none" />
        <path
           d="M 439.494,374.49 L 376.537,322.807 L 374.759,324.551 L 438.946,378.589 L 439.494,374.49 z"
           id="path247"
           style="fill:#fff200;fill-opacity:1;fill-rule:evenodd;stroke:none" />
        <path
           d="M 440.478,366.791 L 379.739,320.067 L 377.966,321.984 L 440.101,370.833 L 440.478,366.791 z"
           id="path249"
           style="fill:#fff200;fill-opacity:1;fill-rule:evenodd;stroke:none" />
        <path
           d="M 115.993,371.518 L 185.084,313.656 L 184.28,310.599 L 115.359,367.003 L 115.993,371.518 z"
           id="path251"
           style="fill:#fff200;fill-opacity:1;fill-rule:evenodd;stroke:none" />
        <path
           d="M 185.721,304.83 L 184.597,301.934 L 114.244,355.903 L 114.244,360.251 L 185.721,304.83 z"
           id="path253"
           style="fill:#fff200;fill-opacity:1;fill-rule:evenodd;stroke:none" />
        <path
           d="M 114.852,346.47 L 186.36,298.245 L 185.081,295.182 L 115.689,342.259 L 114.852,346.47 z"
           id="path255"
           style="fill:#fff200;fill-opacity:1;fill-rule:evenodd;stroke:none" />
        <path
           d="M 280.971,338.059 L 280.007,328.155 L 278.08,328.646 L 278.562,338.282 L 280.971,338.059 z"
           id="path257"
           style="fill:#fff200;fill-opacity:1;fill-rule:evenodd;stroke:none" />
        <path
           d="M 272.449,338.412 L 272.518,328.479 L 270.755,328.44 L 270.372,338.389 L 272.449,338.412 z"
           id="path259"
           style="fill:#fff200;fill-opacity:1;fill-rule:evenodd;stroke:none" />
        <path
           d="M 285.158,336.931 L 283.862,327.575 L 282.003,327.825 L 282.899,337.576 L 285.158,336.931 z"
           id="path261"
           style="fill:#fff200;fill-opacity:1;fill-rule:evenodd;stroke:none" />
        <path
           d="M 255.411,337.601 L 257.384,327.086 L 254.887,326.431 L 252.328,337.174 L 255.411,337.601 z"
           id="path263"
           style="fill:#fff200;fill-opacity:1;fill-rule:evenodd;stroke:none" />
        <path
           d="M 264.573,338.144 L 265.428,327.973 L 263.21,327.967 L 262.042,337.926 L 264.573,338.144 z"
           id="path265"
           style="fill:#fff200;fill-opacity:1;fill-rule:evenodd;stroke:none" />
        <path
           d="M 259.827,337.984 L 261.404,327.744 L 259.077,327.35 L 257.568,337.593 L 259.827,337.984 z"
           id="path267"
           style="fill:#fff200;fill-opacity:1;fill-rule:evenodd;stroke:none" />
        <path
           d="M 268.487,338.227 L 269.134,328.411 L 267.207,328.347 L 266.243,338.275 L 268.487,338.227 z"
           id="path269"
           style="fill:#fff200;fill-opacity:1;fill-rule:evenodd;stroke:none" />
        <path
           d="M 250.188,336.571 L 253.167,325.825 L 250.353,325.109 L 247.169,336.146 L 250.188,336.571 z"
           id="path271"
           style="fill:#fff200;fill-opacity:1;fill-rule:evenodd;stroke:none" />
        <path
           d="M 289.811,334.986 L 288.184,326.775 L 285.774,327.341 L 287.236,336.146 L 289.811,334.986 z"
           id="path273"
           style="fill:#fff200;fill-opacity:1;fill-rule:evenodd;stroke:none" />
        <path
           d="M 310.92,320.214 L 317.596,336.261 L 320.132,335.105 L 313.478,318.933 L 310.92,320.214 z"
           id="path275"
           style="fill:#fff200;fill-opacity:1;fill-rule:evenodd;stroke:none" />
        <path
           d="M 315.273,337.396 L 308.714,320.619 L 306.208,321.714 L 313.108,338.493 L 315.273,337.396 z"
           id="path277"
           style="fill:#fff200;fill-opacity:1;fill-rule:evenodd;stroke:none" />
        <path
           d="M 315.741,317.813 L 322.771,333.697 L 325.197,331.841 L 317.705,316.732 L 315.741,317.813 z"
           id="path279"
           style="fill:#fff200;fill-opacity:1;fill-rule:evenodd;stroke:none" />
        <path
           d="M 248.755,324.448 L 246.353,323.617 L 242.155,333.738 L 244.704,335.023 L 248.755,324.448 z"
           id="path281"
           style="fill:#fff200;fill-opacity:1;fill-rule:evenodd;stroke:none" />
        <path
           d="M 294.081,332.844 L 292.407,326.072 L 290.011,326.627 L 291.603,333.938 L 294.081,332.844 z"
           id="path283"
           style="fill:#fff200;fill-opacity:1;fill-rule:evenodd;stroke:none" />
        <path
           d="M 416.378,330.847 L 390.99,312.043 L 389.052,313.794 L 415.06,333.469 L 416.378,330.847 z"
           id="path285"
           style="fill:#fff200;fill-opacity:1;fill-rule:evenodd;stroke:none" />
        <path
           d="M 117.59,333.757 L 185.239,292.459 L 184.115,289.405 L 118.581,328.919 L 117.59,333.757 z"
           id="path287"
           style="fill:#fff200;fill-opacity:1;fill-rule:evenodd;stroke:none" />
        <path
           d="M 298.003,329.984 L 296.384,325.099 L 294.547,325.664 L 295.924,331.976 L 298.003,329.984 z"
           id="path289"
           style="fill:#fff200;fill-opacity:1;fill-rule:evenodd;stroke:none" />
        <path
           d="M 301.623,327.825 L 300.427,323.866 L 298.57,324.808 L 299.48,329.036 L 301.623,327.825 z"
           id="path291"
           style="fill:#fff200;fill-opacity:1;fill-rule:evenodd;stroke:none" />
        <path
           d="M 329.507,328.09 L 321.931,314.112 L 319.937,315.343 L 327.579,330.018 L 329.507,328.09 z"
           id="path293"
           style="fill:#fff200;fill-opacity:1;fill-rule:evenodd;stroke:none" />
        <path
           d="M 305.065,325.064 L 304.185,322.277 L 302.174,323.088 L 303.138,326.51 L 305.065,325.064 z"
           id="path295"
           style="fill:#fff200;fill-opacity:1;fill-rule:evenodd;stroke:none" />
        <path
           d="M 418.472,325.064 L 394.606,309.39 L 392.862,311.159 L 417.329,327.995 L 418.472,325.064 z"
           id="path297"
           style="fill:#fff200;fill-opacity:1;fill-rule:evenodd;stroke:none" />
        <path
           d="M 242.231,321.797 L 244.288,322.872 L 240.552,332.471 L 238.224,330.908 L 242.231,321.797 z"
           id="path299"
           style="fill:#fff200;fill-opacity:1;fill-rule:evenodd;stroke:none" />
        <path
           d="M 334.19,323.324 L 326.246,311.738 L 324.278,313.014 L 332.248,325.548 L 334.19,323.324 z"
           id="path301"
           style="fill:#fff200;fill-opacity:1;fill-rule:evenodd;stroke:none" />
        <path
           d="M 234.882,323.667 L 237.38,319.433 L 236.023,318.55 L 233.411,322.257 L 234.882,323.667 z"
           id="path303"
           style="fill:#fff200;fill-opacity:1;fill-rule:evenodd;stroke:none" />
        <path
           d="M 338.264,318.918 L 330.506,308.895 L 328.577,310.339 L 336.503,321.095 L 338.264,318.918 z"
           id="path305"
           style="fill:#fff200;fill-opacity:1;fill-rule:evenodd;stroke:none" />
        <path
           d="M 415.713,317.055 L 397.885,306.936 L 396.415,308.405 L 414.151,319.189 L 415.713,317.055 z"
           id="path307"
           style="fill:#fff200;fill-opacity:1;fill-rule:evenodd;stroke:none" />
        <path
           d="M 341.138,314.212 L 334.611,306.252 L 333.014,307.717 L 339.542,316.158 L 341.138,314.212 z"
           id="path309"
           style="fill:#fff200;fill-opacity:1;fill-rule:evenodd;stroke:none" />
        <path
           d="M 344.43,311.105 L 337.186,303.529 L 335.904,304.825 L 343.035,312.554 L 344.43,311.105 z"
           id="path311"
           style="fill:#fff200;fill-opacity:1;fill-rule:evenodd;stroke:none" />
        <path
           d="M 168.006,284.244 L 166.893,281.901 L 141.844,293.467 L 140.617,297.799 L 168.006,284.244 z"
           id="path313"
           style="fill:#fff200;fill-opacity:1;fill-rule:evenodd;stroke:none" />
        <path
           d="M 166.142,278.941 L 165.325,276.878 L 145.591,284.789 L 143.579,288.849 L 166.142,278.941 z"
           id="path315"
           style="fill:#fff200;fill-opacity:1;fill-rule:evenodd;stroke:none" />
        <path
           d="M 164.287,273.915 L 163.809,272.057 L 149.01,276.808 L 147.275,280.657 L 164.287,273.915 z"
           id="path317"
           style="fill:#fff200;fill-opacity:1;fill-rule:evenodd;stroke:none" />
        <path
           d="M 334.941,220.979 C 355.662,217.123 373.491,210.858 386.984,197.848 C 390.356,193.511 391.321,187.729 390.839,180.982 C 391.321,187.729 390.356,193.511 386.984,197.848 C 373.491,210.858 355.662,217.123 334.941,220.979"
           id="path319"
           style="fill:#6b6155;fill-opacity:1;fill-rule:evenodd;stroke:none" />
        <path
           d="M 273.92,328.573 L 274.154,338.275 L 276.636,338.268 L 276.154,328.364 L 273.92,328.573 z"
           id="path321"
           style="fill:#fff200;fill-opacity:1;fill-rule:evenodd;stroke:none" />
        <path
           d="M 240.498,321.475 L 238.642,320.308 L 235.362,326.877 L 237.604,327.955 L 240.498,321.475 z"
           id="path323"
           style="fill:#fff200;fill-opacity:1;fill-rule:evenodd;stroke:none" />
        <path
           d="M 344.416,182.095 L 348.429,180.62 L 346.79,175.546 L 349.397,174.587 L 353.207,186.389 L 350.6,187.347 L 349.168,182.913 L 345.156,184.387 L 346.586,188.82 L 343.979,189.778 L 340.17,177.978 L 342.778,177.02 L 344.416,182.095 z M 332.602,184.448 L 335.103,188.718 L 335.565,183.717 L 332.602,184.448 z M 334.423,192.233 L 327.523,181.125 L 330.358,180.425 L 331.567,182.524 L 335.704,181.507 L 335.942,179.05 L 338.794,178.349 L 337.143,191.564 L 334.423,192.233 z M 322.349,192.354 L 320.873,182.422 L 323.599,181.962 L 325.071,191.894 L 328.555,191.305 L 328.909,193.699 L 319.206,195.34 L 318.851,192.945 L 322.349,192.354 z M 314.102,188.207 C 313.959,187.632 313.731,187.173 313.393,186.816 C 312.886,186.281 312.243,186.066 311.428,186.158 C 310.467,186.266 309.773,186.757 309.355,187.628 C 308.979,188.405 308.854,189.352 308.967,190.503 C 309.072,191.568 309.309,192.438 309.677,193.113 C 310.249,194.144 311.066,194.589 312.163,194.466 C 312.759,194.381 313.231,194.221 313.574,193.949 C 314.104,193.531 314.36,192.893 314.377,192.031 L 317.069,191.729 C 317.195,193.006 316.897,194.079 316.179,194.983 C 315.328,196.065 314.03,196.695 312.267,196.892 C 310.206,197.106 308.654,196.545 307.582,195.195 C 306.698,194.093 306.184,192.609 305.999,190.73 C 305.784,188.387 306.23,186.615 307.356,185.414 C 308.24,184.49 309.479,183.936 311.074,183.757 C 312.988,183.561 314.442,183.992 315.455,185.062 C 316.146,185.772 316.591,186.71 316.826,187.901 L 314.102,188.207 z M 297.736,187.419 C 296.901,187.467 296.263,187.77 295.807,188.331 C 295.206,189.061 294.945,190.2 295.02,191.75 C 295.112,193.245 295.43,194.298 295.997,194.944 C 296.528,195.539 297.244,195.803 298.146,195.753 C 298.979,195.688 299.618,195.401 300.076,194.859 C 300.692,194.129 300.954,192.988 300.877,191.423 C 300.779,189.749 300.354,188.595 299.57,187.96 C 299.082,187.56 298.469,187.378 297.736,187.419 M 297.617,184.995 C 299.654,184.898 301.205,185.477 302.29,186.755 C 303.248,187.881 303.755,189.368 303.848,191.256 C 303.925,193.161 303.564,194.699 302.739,195.905 C 301.753,197.318 300.267,198.063 298.264,198.175 C 296.078,198.296 294.455,197.603 293.359,196.091 C 292.551,194.977 292.116,193.59 292.033,191.917 C 291.967,190.242 292.265,188.815 292.96,187.615 C 293.917,185.99 295.464,185.116 297.617,184.995 M 284.271,196.065 L 284.107,186.011 L 286.864,185.959 L 287.03,196.014 L 290.554,195.948 L 290.593,198.372 L 280.769,198.556 L 280.729,196.131 L 284.271,196.065 z M 272.213,196.031 L 274.368,196.07 L 274.601,196.075 C 275.087,196.066 275.456,196.003 275.708,195.863 C 276.147,195.623 276.354,195.162 276.366,194.484 C 276.358,193.843 276.199,193.395 275.853,193.12 C 275.522,192.863 275.057,192.749 274.422,192.736 L 272.268,192.697 L 272.213,196.031 z M 269.416,198.403 L 269.62,185.925 L 272.377,185.977 L 272.307,190.272 L 274.929,190.321 C 276.434,190.366 277.546,190.728 278.27,191.437 C 279.01,192.163 279.361,193.203 279.339,194.559 C 279.321,195.627 279.074,196.461 278.596,197.096 C 277.861,198.08 276.617,198.538 274.863,198.505 L 269.416,198.403 z M 261.147,187.388 C 260.313,187.324 259.646,187.543 259.127,188.042 C 258.448,188.688 258.059,189.785 257.958,191.332 C 257.877,192.826 258.074,193.914 258.562,194.63 C 259.021,195.29 259.701,195.645 260.603,195.712 C 261.437,195.757 262.102,195.556 262.62,195.076 C 263.315,194.432 263.706,193.333 263.809,191.77 C 263.901,190.097 263.61,188.894 262.905,188.162 C 262.466,187.7 261.879,187.442 261.147,187.388 M 261.306,184.966 C 263.338,185.135 264.811,185.909 265.743,187.319 C 266.565,188.561 266.899,190.104 266.775,191.99 C 266.635,193.891 266.1,195.371 265.143,196.461 C 264.004,197.734 262.444,198.279 260.444,198.131 C 258.26,197.967 256.727,197.066 255.813,195.426 C 255.139,194.215 254.863,192.781 254.974,191.109 C 255.099,189.439 255.558,188.063 256.384,186.961 C 257.521,185.473 259.156,184.806 261.306,184.966 M 244.318,183.551 L 247.055,183.91 L 246.393,189.965 L 251.202,184.452 L 254.553,184.892 L 248.853,190.971 L 252.862,197.244 L 249.642,196.822 L 246.229,191.095 L 245.63,196.296 L 240.705,195.651 L 240.98,193.245 L 243.17,193.531 L 244.318,183.551 z M 227.119,182.683 L 225.32,192.554 L 222.598,191.989 L 224.83,179.738 L 240.15,182.915 L 237.917,195.167 L 235.196,194.603 L 236.995,184.73 L 233.417,183.989 L 231.618,193.86 L 228.896,193.295 L 230.695,183.424 L 227.119,182.683 z M 215.148,181.1 L 215.313,186.134 L 218.056,182.049 L 215.148,181.1 z M 213.076,188.815 L 212.307,175.514 L 215.09,176.422 L 215.153,178.885 L 219.213,180.208 L 220.572,178.21 L 223.368,179.121 L 215.745,189.685 L 213.076,188.815 z M 202.78,176.874 L 204.888,177.827 C 205.54,178.104 206.048,178.198 206.43,178.101 C 206.836,177.994 207.119,177.694 207.314,177.203 C 207.494,176.703 207.463,176.282 207.204,175.933 C 206.965,175.613 206.553,175.327 205.938,175.049 L 203.878,174.116 L 202.78,176.874 z M 201.084,181.141 L 206.912,183.781 L 206.024,186.014 L 197.657,182.223 L 202.227,170.733 L 207.366,173.062 C 208.357,173.53 209.123,174.071 209.647,174.716 C 210.495,175.778 210.633,176.983 210.079,178.378 C 209.632,179.454 209.031,180.188 208.244,180.568 C 207.233,181.059 205.983,180.958 204.492,180.282 L 201.893,179.104 L 201.084,181.141 z"
           id="path325"
           style="fill:#231f20;fill-opacity:1;fill-rule:evenodd;stroke:none" />
        <path
           d="M 344.416,182.095 L 348.429,180.62 L 346.79,175.546 L 349.397,174.587 L 353.207,186.389 L 350.6,187.347 L 349.168,182.913 L 345.156,184.387 L 346.586,188.82 L 343.979,189.778 L 340.17,177.978 L 342.778,177.02 L 344.416,182.095 z M 332.602,184.448 L 335.103,188.718 L 335.565,183.717 L 332.602,184.448 z M 334.423,192.233 L 327.523,181.125 L 330.358,180.425 L 331.567,182.524 L 335.704,181.507 L 335.942,179.05 L 338.794,178.349 L 337.143,191.564 L 334.423,192.233 z M 322.349,192.354 L 320.873,182.422 L 323.599,181.962 L 325.071,191.894 L 328.555,191.305 L 328.909,193.699 L 319.206,195.34 L 318.851,192.945 L 322.349,192.354 z M 314.102,188.207 C 313.959,187.632 313.731,187.173 313.393,186.816 C 312.886,186.281 312.243,186.066 311.428,186.158 C 310.467,186.266 309.773,186.757 309.355,187.628 C 308.979,188.405 308.854,189.352 308.967,190.503 C 309.072,191.568 309.309,192.438 309.677,193.113 C 310.249,194.144 311.066,194.589 312.163,194.466 C 312.759,194.381 313.231,194.221 313.574,193.949 C 314.104,193.531 314.36,192.893 314.377,192.031 L 317.069,191.729 C 317.195,193.006 316.897,194.079 316.179,194.983 C 315.328,196.065 314.03,196.695 312.267,196.892 C 310.206,197.106 308.654,196.545 307.582,195.195 C 306.698,194.093 306.184,192.609 305.999,190.73 C 305.784,188.387 306.23,186.615 307.356,185.414 C 308.24,184.49 309.479,183.936 311.074,183.757 C 312.988,183.561 314.442,183.992 315.455,185.062 C 316.146,185.772 316.591,186.71 316.826,187.901 L 314.102,188.207 z M 297.736,187.419 C 296.901,187.467 296.263,187.77 295.807,188.331 C 295.206,189.061 294.945,190.2 295.02,191.75 C 295.112,193.245 295.43,194.298 295.997,194.944 C 296.528,195.539 297.244,195.803 298.146,195.753 C 298.979,195.688 299.618,195.401 300.076,194.859 C 300.692,194.129 300.954,192.988 300.877,191.423 C 300.779,189.749 300.354,188.595 299.57,187.96 C 299.082,187.56 298.469,187.378 297.736,187.419 z M 297.617,184.995 C 299.654,184.898 301.205,185.477 302.29,186.755 C 303.248,187.881 303.755,189.368 303.848,191.256 C 303.925,193.161 303.564,194.699 302.739,195.905 C 301.753,197.318 300.267,198.063 298.264,198.175 C 296.078,198.296 294.455,197.603 293.359,196.091 C 292.551,194.977 292.116,193.59 292.033,191.917 C 291.967,190.242 292.265,188.815 292.96,187.615 C 293.917,185.99 295.464,185.116 297.617,184.995 z M 284.271,196.065 L 284.107,186.011 L 286.864,185.959 L 287.03,196.014 L 290.554,195.948 L 290.593,198.372 L 280.769,198.556 L 280.729,196.131 L 284.271,196.065 z M 272.213,196.031 L 274.368,196.07 L 274.601,196.075 C 275.087,196.066 275.456,196.003 275.708,195.863 C 276.147,195.623 276.354,195.162 276.366,194.484 C 276.358,193.843 276.199,193.395 275.853,193.12 C 275.522,192.863 275.057,192.749 274.422,192.736 L 272.268,192.697 L 272.213,196.031 z M 269.416,198.403 L 269.62,185.925 L 272.377,185.977 L 272.307,190.272 L 274.929,190.321 C 276.434,190.366 277.546,190.728 278.27,191.437 C 279.01,192.163 279.361,193.203 279.339,194.559 C 279.321,195.627 279.074,196.461 278.596,197.096 C 277.861,198.08 276.617,198.538 274.863,198.505 L 269.416,198.403 z M 261.147,187.388 C 260.313,187.324 259.646,187.543 259.127,188.042 C 258.448,188.688 258.059,189.785 257.958,191.332 C 257.877,192.826 258.074,193.914 258.562,194.63 C 259.021,195.29 259.701,195.645 260.603,195.712 C 261.437,195.757 262.102,195.556 262.62,195.076 C 263.315,194.432 263.706,193.333 263.809,191.77 C 263.901,190.097 263.61,188.894 262.905,188.162 C 262.466,187.7 261.879,187.442 261.147,187.388 z M 261.306,184.966 C 263.338,185.135 264.811,185.909 265.743,187.319 C 266.565,188.561 266.899,190.104 266.775,191.99 C 266.635,193.891 266.1,195.371 265.143,196.461 C 264.004,197.734 262.444,198.279 260.444,198.131 C 258.26,197.967 256.727,197.066 255.813,195.426 C 255.139,194.215 254.863,192.781 254.974,191.109 C 255.099,189.439 255.558,188.063 256.384,186.961 C 257.521,185.473 259.156,184.806 261.306,184.966 z M 244.318,183.551 L 247.055,183.91 L 246.393,189.965 L 251.202,184.452 L 254.553,184.892 L 248.853,190.971 L 252.862,197.244 L 249.642,196.822 L 246.229,191.095 L 245.63,196.296 L 240.705,195.651 L 240.98,193.245 L 243.17,193.531 L 244.318,183.551 z M 227.119,182.683 L 225.32,192.554 L 222.598,191.989 L 224.83,179.738 L 240.15,182.915 L 237.917,195.167 L 235.196,194.603 L 236.995,184.73 L 233.417,183.989 L 231.618,193.86 L 228.896,193.295 L 230.695,183.424 L 227.119,182.683 z M 215.148,181.1 L 215.313,186.134 L 218.056,182.049 L 215.148,181.1 z M 213.076,188.815 L 212.307,175.514 L 215.09,176.422 L 215.153,178.885 L 219.213,180.208 L 220.572,178.21 L 223.368,179.121 L 215.745,189.685 L 213.076,188.815 z M 202.78,176.874 L 204.888,177.827 C 205.54,178.104 206.048,178.198 206.43,178.101 C 206.836,177.994 207.119,177.694 207.314,177.203 C 207.494,176.703 207.463,176.282 207.204,175.933 C 206.965,175.613 206.553,175.327 205.938,175.049 L 203.878,174.116 L 202.78,176.874 z M 201.084,181.141 L 206.912,183.781 L 206.024,186.014 L 197.657,182.223 L 202.227,170.733 L 207.366,173.062 C 208.357,173.53 209.123,174.071 209.647,174.716 C 210.495,175.778 210.633,176.983 210.079,178.378 C 209.632,179.454 209.031,180.188 208.244,180.568 C 207.233,181.059 205.983,180.958 204.492,180.282 L 201.893,179.104 L 201.084,181.141 z"
           id="path327"
           style="fill:none;stroke:#ffffff;stroke-width:0.1;stroke-linecap:butt;stroke-linejoin:miter;stroke-miterlimit:2.61299992;stroke-dasharray:none;stroke-opacity:1" />
        <path
           d="M 448.183,226.466 C 438.703,212.975 429.468,201.705 417.824,191.584 C 417.824,192.343 418.497,193.717 418.858,194.442 C 421.75,197.815 425.052,201.222 427.943,204.595 C 430.835,207.486 432.28,210.858 432.763,214.715 C 429.484,248.095 334.41,227.813 325.786,222.424 C 327.637,221.499 332.878,220.979 334.941,220.979 C 355.662,217.123 373.491,210.858 386.984,197.848 C 390.356,193.511 391.321,187.729 390.839,180.982 C 386.984,173.754 383.13,166.045 379.273,158.815 C 376.865,154.479 373.241,148.215 369.869,143.878 C 370.35,145.805 370.428,146.982 370.91,148.428 C 373.319,153.247 376.383,158.334 378.793,163.152 C 389.527,199.341 290.839,206.395 273.563,206.041 C 253.728,205.635 170.64,194.558 172.421,162.414 C 173.867,155.667 179.032,151.351 182.404,145.087 C 182.404,143.642 182.521,142.453 182.521,141.007 C 174.864,151.017 162.542,167.316 159.22,185.214 C 159.02,202.721 203.314,217.56 225.556,220.015 C 217.365,223.869 207.246,225.797 197.125,227.243 C 178.535,230.87 119.385,238.661 114.244,210.378 C 114.54,207.195 122.917,200.739 127.735,196.402 C 128.217,195.438 128.217,193.993 128.7,193.03 C 117.382,201.516 108.448,212.253 99.787,223.389 C 94.966,241.213 118.885,246.554 133.519,245.073 C 167.731,242.181 199.535,234.471 229.411,220.979 C 258.324,228.206 290.364,227.243 320.239,222.906 C 348.758,239.635 455.507,264.625 448.183,226.466"
           id="path329"
           style="fill:#1082cf;fill-opacity:1;fill-rule:evenodd;stroke:none" />
        <path
           d="M 371.981,146.946 C 368.363,139.78 364.601,133.248 357.589,128.458 C 347.788,152.021 310.855,160.862 276.398,160.928 C 241.941,160.993 187.263,141.657 198.09,123.64 C 192.485,123.64 183.557,137.872 181.967,141.688 C 181.748,168.044 253.239,180.4 275.785,180.365 C 298.331,180.33 361.274,175.238 371.981,146.946"
           id="path331"
           style="fill:#00a870;fill-opacity:1;fill-rule:evenodd;stroke:none" />
        <path
           d="M 320.673,155.268 C 333.831,154.875 366.238,140.768 358.353,129.631 C 350.467,118.494 324.66,151.628 320.673,155.268"
           id="path333"
           style="fill:#6b5f52;fill-opacity:1;fill-rule:evenodd;stroke:none" />
        <path
           d="M 196.888,123.711 C 182.853,137.021 222.295,152.319 230.518,153.048 C 222.13,141.861 212.117,120.889 196.888,123.711"
           id="path335"
           style="fill:#6b5f52;fill-opacity:1;fill-rule:evenodd;stroke:none" />
        <path
           d="M 221.209,219.389 C 219.669,219.166 218.841,218.779 217.365,218.569 C 212.545,218.087 207.246,217.605 202.427,217.123 C 184.115,214.715 167.731,210.858 154.721,201.704 C 151.349,198.33 147.492,194.958 148.457,189.174 C 150.866,184.837 155.333,185.138 159.669,183.21 C 157.26,182.729 156.166,182.428 153.756,182.428 C 144.602,183.392 134.481,186.284 128.7,193.03 C 128.217,193.993 128.217,195.438 127.735,196.402 C 126.772,201.704 130.145,206.041 134,208.932 C 154.883,224.214 197,225.445 221.209,219.389"
           id="path337"
           style="fill:#00a870;fill-opacity:1;fill-rule:evenodd;stroke:none" />
        <path
           d="M 218.938,218.845 C 199.166,215.35 155.51,200.525 159.637,183.212 C 155.992,183.897 148.141,185.639 148.123,190.393 C 147.033,211.471 201.883,218.433 218.938,218.845"
           id="path339"
           style="fill:#6b5f52;fill-opacity:1;fill-rule:evenodd;stroke:none" />
        <path
           d="M 417.824,191.584 C 412.178,183.121 400.688,180.465 390.839,180.982 C 391.321,187.729 390.356,193.511 386.984,197.848 C 373.491,210.858 355.736,216.553 335.017,220.409 C 332.766,220.697 329.55,221.297 327.621,221.779 C 345.852,226.502 435.835,225.627 417.824,191.584"
           id="path341"
           style="fill:#00a870;fill-opacity:1;fill-rule:evenodd;stroke:none" />
        <path
           d="M 334.226,220.477 C 344.763,217.479 360.415,215.283 373.128,207.535 C 382.405,201.88 391.527,199.013 390.808,181.335 C 394.224,181.335 401.089,182.859 402.558,187.292 C 408.928,209.365 349.47,220.265 334.226,220.477"
           id="path343"
           style="fill:#6b5f52;fill-opacity:1;fill-rule:evenodd;stroke:none" />
        <path
           d="M 277.828,242.436 L 286.383,257.252 C 286.788,257.157 287.214,257.112 287.647,257.112 C 290.72,257.112 293.231,259.623 293.231,262.696 C 293.231,265.77 290.72,268.28 287.647,268.28 C 284.573,268.28 282.063,265.77 282.063,262.696 C 282.063,261.426 282.489,260.25 283.209,259.308 L 274.606,244.406 L 274.606,261.277 C 276.755,262.056 278.303,264.117 278.303,266.528 C 278.303,269.602 275.792,272.112 272.718,272.112 C 269.645,272.112 267.134,269.602 267.134,266.528 C 267.134,264.118 268.681,262.057 270.829,261.277 L 270.829,243.991 L 262.101,259.11 C 263.085,260.119 263.692,261.496 263.692,263.009 C 263.692,266.083 261.182,268.593 258.108,268.593 C 255.035,268.593 252.524,266.083 252.524,263.009 C 252.524,259.936 255.035,257.425 258.108,257.425 C 258.306,257.425 258.503,257.435 258.695,257.454 L 267.416,242.351 L 253.019,250.664 C 253.13,251.104 253.187,251.566 253.187,252.041 C 253.187,255.114 250.676,257.625 247.603,257.625 C 244.529,257.625 242.019,255.114 242.019,252.041 C 242.019,248.967 244.529,246.457 247.603,246.457 C 248.828,246.457 249.969,246.854 250.893,247.529 L 265.181,239.28 L 249.193,239.28 C 248.485,241.552 246.355,243.208 243.857,243.208 C 240.784,243.208 238.273,240.697 238.273,237.624 C 238.273,234.551 240.784,232.04 243.857,232.04 C 246.18,232.04 248.182,233.476 249.022,235.503 L 270.829,235.503 L 270.829,230.216 L 274.606,230.216 L 274.606,235.503 L 296.629,235.503 C 297.469,233.476 299.472,232.04 301.794,232.04 C 304.867,232.04 307.378,234.551 307.378,237.624 C 307.378,240.697 304.867,243.208 301.794,243.208 C 299.295,243.208 297.166,241.552 296.459,239.28 L 279.916,239.28 L 294.755,247.847 C 295.68,247.17 296.822,246.771 298.051,246.771 C 301.125,246.771 303.635,249.281 303.635,252.354 C 303.635,255.429 301.125,257.938 298.051,257.938 C 294.978,257.938 292.467,255.429 292.467,252.354 C 292.467,251.884 292.523,251.423 292.634,250.984 L 277.828,242.436 z"
           id="path345"
           style="fill:#00a870;fill-opacity:1;fill-rule:evenodd;stroke:none" />
        <path
           d="M 225.505,455.369 C 225.941,458.444 228.211,462.106 230.375,463.843 C 233.267,465.289 232.303,469.625 235.677,471.071 C 239.531,472.035 241.941,472.998 244.831,474.927 C 246.759,475.89 250.615,477.335 252.542,474.927 C 252.542,472.517 249.65,469.143 252.06,467.216 C 251.578,464.324 251.578,462.397 248.688,461.915 C 247.723,460.47 250.132,455.169 246.759,455.169 C 242.904,450.351 248.688,448.423 251.578,446.014 C 257.361,444.086 258.324,438.303 261.216,433.966 C 267.48,432.039 273.262,429.148 280.007,431.076 C 281.935,430.111 284.826,430.111 285.309,427.702 C 286.753,425.774 286.753,423.847 285.791,421.92 C 283.862,421.438 281.454,419.51 279.525,421.438 C 277.598,422.402 277.117,425.292 274.226,423.847 C 273.262,422.884 273.744,420.956 272.299,420.956 C 275.672,419.028 278.562,417.583 280.489,413.728 C 284.344,416.618 288.681,420.956 290.608,425.774 C 293.982,428.666 299.282,429.629 301.209,434.448 C 303.138,436.375 306.028,435.895 308.92,435.895 C 312.293,439.267 314.702,446.496 320.485,445.049 C 323.858,447.459 327.713,449.869 332.05,447.459 C 333.014,449.386 335.424,449.386 336.869,449.386 C 339.761,448.904 344.578,451.313 347.47,447.941 C 349.397,449.386 352.771,448.423 355.181,448.423 C 356.626,445.049 359.998,446.496 362.891,445.532 C 365.3,445.049 366.745,442.64 368.191,440.712 C 373.009,442.159 377.828,442.159 382.647,441.677 C 383.13,438.303 378.793,437.822 377.346,435.413 C 378.793,432.039 382.647,430.111 382.647,426.739 C 381.201,426.256 378.793,427.22 378.311,425.292 C 379.273,423.365 380.72,419.993 378.793,418.546 C 375.9,417.583 373.974,414.21 372.046,411.801 C 371.082,411.318 369.637,411.318 369.154,412.764 C 368.672,409.391 365.782,406.982 362.408,405.054 C 360.48,402.163 359.035,398.308 355.662,396.38 C 355.457,395.144 344.128,388.325 343.615,393.971 C 342.651,397.826 347.952,396.38 347.952,399.753 C 346.987,400.717 345.543,400.235 344.578,400.235 C 342.651,398.79 342.651,393.971 339.278,396.38 L 339.257,396.38 C 338.796,397.558 338.164,399.234 338.744,400.1 C 340.836,403.216 348.71,407.621 345.061,412.764 C 340.241,412.282 342.651,403.127 336.387,405.537 C 335.904,404.572 337.351,404.572 337.833,404.09 C 338.796,402.645 337.351,402.163 336.387,402.645 C 336.764,401.515 337.384,398.226 337.87,396.38 L 337.833,396.38 C 338.313,393.007 338.313,390.116 338.313,386.742 C 345.048,385.06 362.341,390.322 364.817,388.67 C 366.745,386.742 368.191,384.815 369.154,382.888 C 369.154,379.996 369.154,376.623 367.709,374.696 C 366.263,366.985 369.154,360.24 370.6,353.013 C 364.817,348.194 365.782,337.11 356.626,336.146 C 356.144,335.184 354.698,335.184 353.252,335.184 C 352.771,340.483 353.252,344.82 353.252,349.639 C 354.698,351.566 358.554,351.086 359.035,353.976 C 354.217,358.313 359.517,362.649 359.035,367.468 C 359.035,370.842 359.035,373.731 358.554,377.105 C 356.626,375.178 353.252,375.659 352.771,373.249 C 345.543,369.877 341.688,365.541 334.459,361.204 C 330.122,360.24 328.678,357.831 324.34,356.868 C 325.786,353.013 329.641,351.086 332.532,348.194 C 333.014,349.157 333.014,350.121 333.014,350.604 C 335.424,351.086 335.424,347.229 338.796,348.676 C 338.313,353.013 333.978,354.94 331.567,357.831 C 330.604,359.76 333.496,358.795 333.978,358.313 C 336.387,356.386 333.496,361.687 336.387,360.723 C 338.796,355.423 342.17,350.121 345.543,345.302 C 346.987,340.483 351.324,338.075 351.807,333.256 C 356.144,326.027 361.926,320.728 367.709,315.426 C 371.082,311.571 378.311,315.426 380.72,310.607 C 382.226,309.403 382.59,306.085 382.825,304.727 L 386.355,305.224 C 387.801,302.332 386.02,298.561 386.502,295.187 L 354.698,288.923 L 393.73,290.85 C 397.104,285.55 400.478,280.249 402.885,274.949 C 399.995,267.721 398.549,260.492 395.658,253.747 C 367.709,247.963 341.206,239.771 317.111,225.315 C 315.667,225.797 314.22,225.797 313.257,226.278 C 317.111,239.771 312.293,254.228 302.656,264.348 C 291.573,275.912 275.672,280.249 260.251,275.432 C 246.277,272.057 235.677,257.602 232.785,244.591 C 231.339,238.326 231.821,231.098 232.785,225.315 C 232.303,224.834 231.821,224.834 230.857,224.834 C 205.799,233.989 181.225,246.036 153.276,248.445 C 155.203,254.228 159.058,259.529 162.43,265.311 C 168.214,265.793 174.478,266.275 180.26,266.757 C 181.225,270.13 180.32,273.43 180.32,277.284 L 215.893,282.094 C 214.888,282.897 214.665,285.354 214.225,287.009 C 213.647,289.351 212.701,291.214 208.691,288.923 C 207.728,290.369 206.764,291.332 205.318,292.777 C 203.391,298.078 200.981,303.86 196.163,308.68 C 192.294,311.728 190.64,313.264 193.271,317.354 C 195.901,321.443 204.354,326.027 205.799,332.773 C 200.499,340.483 194.717,347.712 192.789,357.35 C 191.048,359.09 187.046,357.068 186.524,354.458 C 187.006,351.086 186.524,347.229 185.561,343.857 C 184.115,342.412 181.707,343.857 180.26,342.412 C 182.669,340.002 183.634,336.628 183.152,332.773 C 180.26,332.292 176.405,330.847 173.514,332.292 C 172.068,333.256 172.068,330.364 170.623,330.364 C 169.659,330.364 168.696,330.847 167.731,330.847 C 165.322,335.184 168.696,337.593 170.623,341.447 C 170.141,341.447 170.141,341.93 169.659,341.93 C 167.731,340.966 164.359,341.447 161.949,340.483 C 159.308,341.804 163.035,347.712 163.876,347.712 C 160.191,356.921 172.929,370.755 181.225,366.023 C 182.669,364.577 185.561,364.577 187.971,364.577 C 189.416,366.985 195.198,363.614 193.753,368.432 C 197.607,378.551 205.318,383.853 214.955,387.707 C 215.437,388.188 215.437,388.188 215.919,388.188 C 217.847,388.67 219.292,389.151 221.219,389.634 C 230.375,390.598 238.567,391.562 245.795,395.898 C 245.795,397.344 243.386,396.863 242.904,397.826 C 238.567,398.79 236.157,398.308 231.821,397.826 C 231.339,397.826 230.857,397.826 230.375,398.308 L 228.93,398.308 C 228.448,399.753 228.448,402.163 226.521,401.68 C 224.593,403.607 223.146,405.537 223.146,407.464 C 228.93,409.391 230.857,416.138 234.23,420.956 C 233.748,421.92 232.303,420.475 231.339,421.438 C 229.411,426.739 240.014,423.365 235.194,428.184 C 232.221,429.457 227.347,433.966 225.35,435.067 C 224.868,434.103 223.629,433.003 223.146,432.039 C 220.256,429.629 218.81,425.774 216.883,423.365 C 215.919,423.365 214.955,423.847 214.955,424.812 C 214.955,427.22 217.365,428.184 217.847,430.593 C 218.81,433.966 221.219,437.34 221.219,440.712 C 218.81,439.75 217.365,445.049 215.437,441.677 C 212.065,439.75 208.691,437.822 205.318,435.413 C 205.318,434.931 205.318,433.485 204.354,433.966 C 203.391,434.448 201.944,435.895 202.909,436.858 C 207.246,439.267 209.655,443.122 214.473,445.532 C 215.437,446.496 214.955,447.459 214.473,448.423 C 211.101,448.904 208.691,449.386 206.764,452.76 C 208.691,457.579 203.872,461.434 203.872,466.253 C 203.391,469.625 202.427,472.998 201.944,475.89 C 199.535,473.48 200.981,469.625 200.017,466.253 C 199.053,462.397 194.235,465.289 192.789,461.434 C 192.789,456.133 197.607,452.76 198.572,447.941 C 197.607,439.267 197.125,430.111 202.427,423.365 C 202.909,421.92 202.909,419.993 202.427,419.028 C 201.462,418.065 199.535,418.065 198.572,419.028 C 197.607,419.993 197.607,422.402 198.572,423.365 C 198.572,423.847 199.053,424.329 199.535,424.329 C 195.68,430.593 196.163,438.785 196.645,446.496 C 195.68,452.76 186.524,460.47 194.717,465.771 C 195.198,465.771 196.645,465.771 197.125,466.734 C 197.607,473.962 197.607,481.191 199.535,487.456 C 197.607,489.383 194.717,491.31 194.235,494.683 C 194.717,498.539 194.717,502.394 196.163,505.285 C 196.645,505.285 197.607,505.766 198.09,505.285 C 200.017,502.394 200.017,498.539 201.462,495.165 C 201.944,497.574 203.391,499.019 202.909,501.911 C 204.354,502.394 204.836,501.429 206.281,500.466 C 205.799,496.611 205.318,492.273 207.246,488.9 C 206.281,486.973 208.691,486.009 208.691,484.563 C 212.065,477.817 213.51,470.589 218.329,464.324 C 218.6,463.693 218.664,463.241 218.6,462.921 C 218.549,462.663 223.052,460.091 223.617,459.056 C 223.488,458.378 225.48,455.186 225.505,455.369 M 223.272,458.374 C 222.386,457.631 221.987,457.473 221.702,456.615 C 218.81,457.097 217.847,455.169 216.4,453.723 C 216.4,453.242 215.437,452.278 216.4,451.796 C 218.329,450.833 220.737,454.688 221.219,451.313 C 220.256,451.313 219.774,450.833 219.774,449.869 C 220.737,448.904 222.184,446.977 223.629,447.459 C 224.593,447.941 223.629,450.351 225.556,449.869 C 228.448,447.941 226.039,444.086 227.483,441.194 C 229.411,439.267 224.111,440.23 227.003,437.822 C 230.375,436.375 233.267,433.485 236.64,433.966 C 235.677,437.34 230.857,436.375 229.411,439.267 C 235.194,439.267 238.567,433.966 244.831,434.448 C 248.205,433.003 252.06,430.593 255.432,433.003 C 257.361,434.931 254.952,437.34 254.469,439.75 C 253.505,441.194 251.095,441.677 250.615,443.122 C 245.795,444.086 245.795,451.796 239.531,451.313 C 236.64,451.313 236.64,459.024 233.748,453.723 C 234.23,452.278 236.64,451.796 238.085,450.351 C 240.014,449.386 242.421,447.941 241.941,445.532 C 242.904,444.568 243.868,444.086 243.386,442.64 C 240.977,442.64 240.494,445.532 238.567,446.977 C 234.23,449.869 229.893,452.278 225.556,454.688 C 225.364,454.869 223.931,456.827 223.272,458.374 M 312.293,349.639 C 317.111,351.086 319.521,344.82 323.858,342.893 C 333.978,338.556 335.904,326.992 346.507,323.136 C 353.252,318.799 352.289,306.752 362.408,307.234 C 363.854,305.788 363.854,303.86 364.335,301.934 L 257.8,287.76 C 257.319,290.17 255.915,292.297 253.987,293.741 C 244.831,295.669 237.604,300.971 229.893,304.343 C 229.411,305.308 228.93,305.788 228.93,306.752 C 228.448,307.234 227.966,307.717 227.483,308.68 L 227.483,315.908 C 229.893,322.654 234.23,328.437 234.712,336.628 C 235.678,339.525 240.963,344.339 243.868,344.339 C 247.241,344.339 250.615,343.857 253.987,343.857 C 264.106,343.857 274.226,345.784 284.344,345.302 C 285.791,345.784 287.718,346.267 288.681,345.784 C 288.681,344.339 288.681,342.412 289.646,341.447 C 296.392,340.966 298.319,334.219 303.619,330.847 C 304.583,330.847 306.511,330.364 306.993,331.81 C 306.993,338.556 300.247,343.375 299.764,350.121 C 301.691,352.049 304.583,351.566 306.993,353.494 C 309.402,353.494 309.883,350.121 312.293,349.639 M 267.48,424.812 C 268.066,423.051 269.566,421.761 270.853,420.475 C 272.299,419.028 271.817,417.583 273.262,416.618 C 275.672,416.138 276.636,413.728 278.562,412.764 C 282.417,409.874 277.117,408.909 276.154,406.982 C 269.89,407.945 270.372,396.38 264.106,400.717 C 262.661,400.717 262.179,404.572 261.216,402.163 C 261.698,399.753 264.106,399.271 264.106,396.38 C 261.216,396.863 258.324,397.344 257.361,399.753 C 258.806,401.68 259.769,404.09 261.698,405.537 C 265.553,405.054 266.516,408.427 268.443,410.836 C 269.89,410.836 271.334,411.801 271.817,413.246 C 272.299,413.728 272.78,415.173 271.817,416.138 C 270.372,412.282 264.588,415.655 264.106,410.836 C 261.698,410.354 258.806,409.391 257.842,406.5 C 256.879,402.163 251.578,401.68 247.723,401.68 C 246.759,400.235 244.831,401.68 243.868,401.68 C 245.795,404.572 251.095,401.68 253.505,404.09 C 256.396,407.464 258.806,412.764 262.661,415.655 C 263.625,418.065 262.179,417.583 261.216,416.138 C 258.806,413.728 253.024,414.21 252.06,409.391 L 251.578,408.909 C 249.65,408.427 247.723,407.945 245.795,407.945 C 242.904,407.464 240.977,409.391 239.049,410.836 C 240.494,412.764 243.386,413.246 244.831,415.173 C 246.277,417.101 247.723,419.028 248.205,420.956 C 247.241,421.92 246.759,420.956 245.795,420.475 C 243.868,419.993 242.421,418.546 240.977,418.546 C 242.421,422.402 243.868,426.739 249.168,426.739 C 252.06,428.184 256.879,427.702 258.806,431.558 C 262.661,429.629 263.625,425.774 267.48,424.812 M 235.194,362.168 C 237.122,360.24 236.64,357.35 236.64,354.94 C 233.267,351.566 237.122,346.749 235.677,342.893 C 232.303,338.556 231.339,333.738 230.857,328.437 C 230.375,327.955 229.893,326.027 228.448,326.51 C 227.003,329.401 227.966,333.256 227.003,336.146 C 224.593,335.184 225.556,331.328 223.629,329.882 C 222.666,333.256 219.774,338.075 215.437,340.483 C 213.028,341.447 209.173,342.412 208.208,345.302 L 208.691,345.302 C 211.583,344.339 214.473,343.375 217.847,342.412 C 219.774,342.893 225.076,336.628 223.146,342.412 C 221.702,350.604 213.992,353.013 207.728,355.903 C 206.281,356.868 204.354,358.313 203.872,360.24 C 208.691,357.831 215.437,357.831 220.256,354.458 C 222.184,356.868 218.81,359.277 218.81,361.687 C 218.354,362.372 213.797,366.504 214.473,366.504 C 214.922,366.729 217.871,364.553 218.329,364.097 C 227.966,362.649 225.556,351.086 229.893,344.82 C 232.303,349.157 234.23,353.494 232.303,358.795 C 229.893,362.649 228.448,367.468 226.521,371.322 C 230.375,368.913 231.339,364.577 235.194,362.168 M 333.496,347.712 C 335.904,345.784 338.313,343.375 341.688,342.893 C 345.061,340.483 348.915,337.11 348.435,332.773 C 354.217,325.545 359.998,318.799 366.745,312.534 C 369.154,311.09 371.564,310.607 374.937,311.09 C 374.456,308.197 370.119,310.125 368.191,309.162 C 365.3,309.644 362.891,313.499 359.517,311.09 C 358.071,320.245 348.915,326.51 342.651,332.773 C 342.651,336.628 338.313,338.075 336.869,340.966 C 336.869,343.375 333.496,344.82 333.496,347.712 M 350.843,445.532 C 354.217,446.977 354.217,442.64 357.108,442.64 C 359.517,443.122 362.891,442.64 363.854,440.23 C 366.263,432.521 372.527,440.712 377.346,439.75 C 377.346,437.822 373.974,437.34 373.974,435.413 C 376.383,433.966 377.828,431.558 379.273,429.629 C 379.273,428.184 377.828,429.148 377.346,428.666 C 374.937,427.22 376.865,423.847 377.346,421.438 C 375.9,421.92 374.456,423.847 374.456,425.774 C 374.456,426.256 373.974,426.739 373.491,427.22 C 372.527,427.22 371.564,426.256 372.046,425.292 C 372.527,422.884 375.9,420.956 373.491,419.028 C 372.527,421.438 370.6,423.847 368.672,425.774 C 368.191,428.184 371.564,433.966 367.709,432.039 C 366.263,427.22 364.817,420.475 369.637,417.101 C 367.709,412.764 365.782,408.909 361.445,406.982 C 360.963,406.5 361.445,406.018 360.963,405.537 C 359.035,405.054 357.108,401.68 354.217,402.645 C 354.217,406.5 359.517,407.464 359.035,411.318 C 361.926,413.728 360.48,406.982 362.891,410.836 C 364.335,414.21 360.48,415.655 361.445,418.546 C 359.998,419.51 359.998,418.065 359.517,417.101 C 359.517,414.691 358.554,411.801 355.662,410.836 C 353.252,410.836 356.144,412.764 355.181,414.691 C 353.734,416.618 354.698,418.546 355.181,420.956 C 353.252,420.956 353.252,419.028 352.289,418.546 C 351.324,419.028 352.289,420.475 352.289,421.438 C 353.252,421.92 354.217,422.884 354.698,423.847 C 353.734,424.329 353.734,425.774 354.698,425.774 C 356.626,429.629 361.926,428.666 364.817,431.558 C 359.517,433.485 353.734,432.039 348.915,429.629 C 347.952,432.039 351.324,433.003 353.252,434.448 C 354.698,434.448 356.144,435.895 356.626,437.34 C 356.144,442.159 353.734,436.375 351.324,437.34 C 347.952,435.413 345.061,435.413 341.688,433.485 C 341.206,436.375 346.507,439.75 344.578,443.122 C 343.133,436.858 334.459,438.785 332.532,433.003 C 328.195,434.448 333.496,437.822 333.496,440.712 C 333.014,441.194 333.978,443.122 332.532,442.64 C 331.567,439.267 327.713,437.34 327.23,434.448 C 324.822,433.966 322.413,432.521 321.931,430.111 C 319.039,431.076 322.894,433.966 322.894,435.895 C 322.894,436.858 323.376,437.822 322.413,438.785 C 320.967,438.303 321.448,436.858 320.485,435.895 C 315.185,433.485 314.702,428.184 313.257,423.365 C 310.365,424.329 309.402,426.256 306.993,426.256 C 305.065,426.256 303.619,424.812 302.174,426.256 C 299.282,425.774 303.138,424.329 302.656,423.365 C 303.619,422.884 304.583,422.884 305.546,422.402 C 305.546,421.438 303.619,420.475 302.174,420.956 C 299.282,421.92 297.837,420.475 295.427,421.438 C 294.945,419.993 296.392,419.51 297.837,418.546 C 299.764,419.028 300.247,414.691 303.138,416.138 C 306.511,413.246 310.848,415.655 314.702,413.728 C 312.775,412.282 310.365,412.764 308.92,411.318 C 304.583,412.764 300.247,412.764 295.427,414.21 C 293.018,411.801 289.163,411.318 284.826,410.354 C 283.381,416.618 292.055,416.618 291.09,422.884 C 294.945,423.365 298.801,424.812 300.729,428.184 C 301.209,430.111 303.138,431.076 304.583,432.521 C 311.813,431.558 313.257,440.23 319.039,441.677 C 320.485,441.194 322.894,441.194 324.34,442.64 C 324.822,444.568 326.268,445.049 327.713,445.049 C 330.604,446.496 333.496,441.194 335.904,445.532 C 337.833,446.014 340.241,443.604 341.688,446.014 C 345.543,447.941 347.47,441.677 350.843,445.532 M 282.899,403.607 C 285.791,398.79 291.573,398.308 293.018,392.525 C 291.09,391.079 287.718,389.634 286.753,386.742 C 288.067,387.263 292.146,389.605 294.464,388.188 C 299.764,384.333 300.247,377.105 306.511,374.214 C 306.511,367.949 312.775,365.541 312.775,359.277 C 313.739,356.868 314.702,354.94 314.702,353.013 C 310.848,350.121 311.33,357.35 308.438,358.313 C 305.065,360.24 300.729,362.168 297.354,363.614 C 299.282,373.731 289.646,374.214 285.791,381.923 C 283.862,383.853 283.381,387.225 280.489,388.67 C 280.007,388.67 280.489,389.151 280.489,389.151 C 282.899,389.151 285.309,390.116 287.718,390.598 C 286.753,393.007 283.862,393.971 281.935,395.898 C 279.525,397.344 277.598,392.044 274.708,395.416 C 273.744,394.934 273.744,394.453 272.78,393.971 C 271.817,394.934 270.853,396.863 270.372,398.308 C 270.372,404.572 278.08,403.127 280.489,406.982 C 282.899,407.464 281.454,404.572 282.899,403.607 M 282.899,370.359 C 281.454,366.985 280.007,363.132 276.636,361.687 C 276.154,361.204 276.154,360.723 275.672,360.723 C 274.708,360.24 275.189,361.204 275.189,361.204 C 275.189,361.687 275.672,361.687 276.154,361.687 C 277.117,363.614 278.08,365.06 279.525,366.985 C 280.489,369.395 280.971,371.805 281.935,374.214 C 283.381,373.731 283.381,371.805 282.899,370.359 M 283.862,361.204 C 281.454,356.868 277.117,353.013 271.334,352.53 C 272.299,354.458 275.189,355.423 277.117,356.868 C 279.044,360.723 281.454,364.577 284.344,367.949 C 285.309,366.023 284.826,363.132 283.862,361.204 M 307.956,398.308 C 308.438,395.416 306.028,398.79 305.546,398.308 C 304.583,398.79 304.583,400.235 302.656,400.235 C 301.209,401.2 299.282,402.645 297.837,404.09 C 301.691,405.537 306.511,402.163 307.956,398.308 M 323.858,410.354 C 325.304,410.836 326.75,410.354 326.75,409.391 C 325.304,409.874 323.858,409.391 323.858,410.354 M 256.879,396.863 C 257.361,393.971 253.024,397.826 253.987,394.453 C 252.542,394.453 252.06,395.416 252.06,396.38 C 252.06,397.826 253.987,397.826 254.952,398.308 C 255.915,398.79 256.879,397.344 256.879,396.863 M 240.014,466.734 C 237.604,466.253 237.604,462.879 235.677,462.397 C 235.194,463.361 236.157,464.324 234.712,464.324 C 234.712,464.807 235.194,465.289 235.194,465.771 C 237.122,466.253 238.085,467.698 240.014,468.18 C 240.494,467.698 240.014,467.216 240.014,466.734 M 214.473,464.324 C 213.028,463.361 211.583,460.47 209.173,461.434 C 207.246,470.107 202.909,477.817 203.391,486.973 C 204.836,490.346 206.281,485.045 207.246,483.601 C 210.136,477.335 209.655,469.625 214.473,464.324 M 247.241,463.361 C 247.241,462.397 245.313,462.879 244.831,461.915 C 245.795,460.47 248.205,460.47 247.241,457.579 C 247.241,456.615 243.868,457.579 245.313,455.65 C 244.831,455.169 241.941,454.205 243.868,453.242 C 243.868,451.796 241.458,454.205 240.014,454.205 C 238.567,454.205 237.604,456.615 238.085,458.06 C 239.049,459.987 239.531,456.133 241.458,457.579 C 241.458,459.987 241.458,462.879 243.386,464.807 C 244.831,465.289 246.277,463.843 247.241,463.361 M 248.688,469.143 C 245.313,468.18 247.241,470.589 247.723,472.517 C 251.578,476.372 249.168,470.589 248.688,469.143 M 250.615,466.253 C 250.132,464.807 247.723,465.771 246.277,465.771 C 245.795,466.253 244.35,466.253 245.313,467.216 C 247.241,467.216 249.65,467.216 250.615,466.253 M 214.473,321.208 C 213.028,323.617 213.992,326.992 211.583,328.919 C 211.101,329.882 211.583,331.81 212.545,329.882 C 214.955,327.955 214.955,324.582 214.473,321.208 M 227.003,286.995 C 226.521,285.068 223.146,285.55 221.219,285.55 C 221.219,286.995 223.629,287.96 225.076,288.44 C 226.039,288.923 226.521,287.96 227.003,286.995 M 254.807,288.416 C 254.132,286.629 250.145,287.48 248.205,286.995 C 247.723,288.44 251.578,287.96 252.06,290.85 C 253.024,290.85 254.325,289.38 254.807,288.416 M 213.51,303.38 C 216.4,302.415 219.292,302.897 221.702,300.971 C 226.226,298.948 236.488,288.646 237.731,289.975 C 238.694,288.527 240.584,287.229 239.622,285.302 L 231.076,284.146 C 229.629,288.483 227.003,291.814 224.111,294.224 C 221.702,295.187 217.365,293.741 216.4,295.669 C 215.919,296.151 215.437,296.151 214.473,296.151 C 211.101,301.451 204.354,307.234 208.208,313.981 C 209.655,313.499 209.655,316.391 211.101,315.426 C 211.101,313.146 207.833,302.118 213.51,303.38 M 227.003,306.752 C 227.483,306.271 227.966,305.788 227.966,305.308 C 225.556,304.825 224.593,306.752 223.629,308.197 C 222.666,311.09 223.146,313.017 223.146,315.908 C 226.039,317.836 225.076,314.944 225.076,313.499 C 225.076,309.084 227.003,309.869 227.003,306.752 M 211.101,320.728 C 206.764,317.354 200.981,315.908 199.535,310.125 C 198.572,312.054 198.09,313.981 198.09,315.908 C 202.427,317.836 206.281,319.763 209.173,323.136 C 211.101,326.027 211.583,321.69 211.101,320.728 M 329.158,397.344 C 330.122,393.007 332.05,388.67 331.567,383.853 C 330.604,382.888 329.158,384.333 328.195,383.37 C 326.75,382.888 325.304,383.37 323.858,381.923 C 325.304,379.516 328.678,380.96 331.087,380.479 C 339.761,385.779 351.324,381.442 360.48,386.742 C 364.817,388.188 364.817,382.888 366.745,380.479 C 364.817,371.805 364.335,363.132 366.263,354.458 C 365.782,353.494 365.3,352.53 363.854,353.013 C 361.445,353.494 364.335,354.458 363.854,355.903 C 362.408,357.831 360.48,359.277 361.926,361.687 C 363.854,366.504 362.891,372.769 361.926,377.587 C 359.998,379.996 357.589,378.551 356.144,379.516 C 347.47,378.068 339.278,375.659 333.496,369.395 C 331.087,366.504 327.23,365.541 323.376,365.541 C 320.004,367.949 320.485,372.286 317.111,374.214 C 314.22,374.214 311.813,376.623 309.883,378.068 C 309.883,379.516 309.402,380.479 308.92,381.442 C 312.775,380.479 317.594,380.96 320.485,378.068 C 320.967,377.587 321.448,378.551 321.448,379.033 C 320.967,385.297 315.185,386.742 311.813,390.598 C 317.111,390.116 321.931,387.707 326.268,384.333 C 328.195,388.188 328.678,392.525 328.195,397.344 L 329.158,397.344 z M 378.793,304.825 L 378.793,303.86 C 376.383,303.86 373.974,302.897 371.564,302.897 C 372.046,305.308 375.419,305.308 376.865,306.752 C 378.311,306.752 377.828,305.308 378.793,304.825 M 221.707,460.282 C 220.702,460.995 219.085,462.31 218.356,462.468 C 216.911,461.023 211.583,458.06 211.101,456.133 C 211.101,455.65 211.101,454.688 211.583,454.688 C 213.992,459.024 218.087,459.127 221.707,460.282"
           id="path347"
           style="fill:#fbbd09;fill-opacity:1;fill-rule:evenodd;stroke:none" />
      </g>
    </g>
  </g>
</svg>
