<?xml version="1.0" encoding="utf-8"?>
<!-- Generator: Adobe Illustrator 16.0.2, SVG Export Plug-In . SVG Version: 6.00 Build 0)  -->
<!DOCTYPE svg PUBLIC "-//W3C//DTD SVG 1.1//EN" "http://www.w3.org/Graphics/SVG/1.1/DTD/svg11.dtd">
<svg version="1.1"
	 id="svg2" xmlns:dc="http://purl.org/dc/elements/1.1/" xmlns:cc="http://creativecommons.org/ns#" xmlns:rdf="http://www.w3.org/1999/02/22-rdf-syntax-ns#" xmlns:svg="http://www.w3.org/2000/svg" xmlns:sodipodi="http://sodipodi.sourceforge.net/DTD/sodipodi-0.dtd" xmlns:inkscape="http://www.inkscape.org/namespaces/inkscape" inkscape:output_extension="org.inkscape.output.svg.inkscape" sodipodi:docname="Coat_of_Arms_of_Sakha_(Yakutia).svg" inkscape:version="0.46" sodipodi:version="0.32"
	 xmlns="http://www.w3.org/2000/svg" xmlns:xlink="http://www.w3.org/1999/xlink" x="0px" y="0px" width="198.008px"
	 height="197.549px" viewBox="1.941 1.593 198.008 197.549" enable-background="new 1.941 1.593 198.008 197.549"
	 xml:space="preserve">
<defs>
	
	
		<inkscape:perspective  id="perspective9" sodipodi:type="inkscape:persp3d" inkscape:vp_x="0 : 526.18109 : 1" inkscape:vp_z="744.09448 : 526.18109 : 1" inkscape:vp_y="0 : 1000 : 0" inkscape:persp3d-origin="372.04724 : 350.78739 : 1">
		</inkscape:perspective>
</defs>
<sodipodi:namedview  id="base" inkscape:cx="156.50363" pagecolor="#ffffff" inkscape:cy="129.27254" showgrid="false" inkscape:zoom="2.8284271" objecttolerance="10.0" borderopacity="1.0" gridtolerance="10.0" bordercolor="#666666" guidetolerance="10.0" inkscape:current-layer="g3006" inkscape:window-y="22" inkscape:window-x="0" inkscape:pageopacity="0.0" inkscape:pageshadow="2" inkscape:window-width="1280" inkscape:window-height="968">
	<inkscape:grid  type="xygrid" id="grid5828"></inkscape:grid>
</sodipodi:namedview>
<g id="flowRoot5811">
</g>
<g>
	<ellipse fill="#FFFFFF" cx="100.945" cy="100.369" rx="99.004" ry="98.773"/>
	
		<path id="path2404" sodipodi:nodetypes="cssssssssccssssssssccsssssssccssssssccsscccscccssscscsscscsscscsssssccssscsssssssscccccccccccccccssssssssssssssssssssssssssssssssssscccccsccccccscccccscccsscsccscsc" fill="#DC282D" d="
		M90.217,177.214c-25.092-3.655-46.913-19.554-58.069-42.308c-9.312-18.99-10.07-43.275-1.957-62.643
		c8.532-20.366,25.973-36.229,47.986-43.642c7.257-2.444,14.393-3.241,22.25-3.091c8.482,0.164,16.359,0.564,23.75,3.137
		c31.161,10.846,51.251,36.776,53.193,68.658c1.332,21.86-6.212,41.435-22.193,57.587c-12.562,12.696-26.913,19.975-44.104,22.365
		C102.536,178.465,98.725,178.453,90.217,177.214z M123.796,172.34c18.856-6.317,32.979-17.877,42.568-34.848
		c8.715-15.42,11.532-35.341,7.427-52.499c-6.155-25.716-24.444-45.721-49.613-54.268c-6.314-2.145-10.455-2.814-19.66-3.178
		c-14.159-0.56-23.608,1.235-35.339,6.71c-28.645,13.371-46.342,44.954-42.475,75.799c4.261,33.979,29.877,60.052,64.475,65.623
		c1.65,0.266,7.578,0.822,13.171,0.625C112.42,176.021,116.439,174.805,123.796,172.34z M85.178,172.858
		c-13.896-3.03-25.926-9.802-36.5-20.546c-23.987-24.371-27.761-61.809-9.092-90.193c20.735-31.526,59.969-42.36,93.591-25.843
		c37.215,18.281,51.432,62.115,32.271,99.494c-3.173,6.189-6.251,10.176-13.284,17.203c-7.811,7.805-10.535,9.811-18.57,13.666
		c-5.178,2.485-12.654,5.232-16.613,6.104C108.422,174.626,93.533,174.681,85.178,172.858z M120.678,170.816
		c23.006-7.067,40.646-23.971,48.631-46.596c3.535-10.017,4.39-27.213,1.908-38.368c-2.469-11.095-9.195-23.832-17.087-32.356
		C115.663,11.949,48.389,27.413,31.797,81.617c-4.228,13.811-3.75,29.342,1.355,44.02c7.938,22.825,28.237,40.539,53.026,46.271
		C94.032,173.725,113.182,173.119,120.678,170.816z M60.426,130.697c-2.247-11.293-2.938-12.104-1.307-15.256
		c1.753-3.389,1.512-6.115-0.541-6.115c-0.64,0-3.624,2.362-6.63,5.25l-5.467,5.25l0.491,10.25c0.399,8.327,0.23,10.25-0.901,10.25
		c-1.101,0-1.393-2.187-1.393-10.448V119.43l4.961-5.961c4.218-5.068,4.742-6.144,3.5-7.175c-0.977-0.811-1.461-3.15-1.461-7.055
		c0-5.066,0.399-6.297,3-9.26c2.843-3.238,4.247-6.413,3.862-8.229c0.001-0.852-1.69-0.644-2.938-0.832
		c-1.548-0.233-3.992-0.604-4.318-0.692c-0.344,0.469,0.304,2.071,0.193,3.031c-0.375,3.217-2.288,2.453-2.33-0.931
		c-0.009-0.704,0.622-2.135,0.703-3.34c-0.236-0.258-0.303-0.289-0.397-0.424c-0.854-1.233-1.081-2.36-1.309-3.635
		c-0.245-0.03-1.427,0.452-1.774,0.297c-0.76-0.34-0.87-1.234-0.798-1.598c0.236-1.191,2.997-3.229,2.997-3.229
		c1.72-1.414,3.29-2.283,2.875-3.633c-0.525-1.71,2.833-1.611,3.512,0.156c0.385,1.174,1.698,1.519,3.397,2.059
		c1.7,0.541,3.567,1.916,5.166,0.624c1.124-0.909,2.081,0.597,1.461,1.772c-0.742,1.409,1.27,1.774,2.774,1.427
		c1.523-0.351,1.823,0.843,1.479,1.677c-0.545,1.32-0.615,2.176,0.761,1.864c1.801-0.125,2.026,1.449,0.43,2.454
		c0.051,1.415,1.78,3.87,2.867,5c1.655,1.721,1.745,1.65,2.423-0.106c1.436-3.717,2.027-9.186,1.053-9.788
		c-0.548-0.339-2.762-0.231-3.831,0.736c-1.907,2.63-3.023,1.67-1.279-0.788c0.63-0.889,2.56-1.524,4.143-1.524
		c1.777,0,2.877-0.526,2.877-1.377c0-0.758,0.635-1.905,1.411-2.549c1.686-1.399,3.214,0.364,2.751,3.176
		c-0.222,1.352,0.417,1.75,2.807,1.75c1.702,0,3.308-0.563,3.569-1.25s1.789-8.9,3.396-18.25c1.606-9.35,2.705-15.591,3.246-18.139
		c0.624,0.137,0.479,0.041,0.876,0.125c-0.276,1.484-0.854,4.619-1.527,8.278l23.908,5.729c0.011,0.204-0.084,0.476-0.187,0.627
		l-10.261-2.345l-1.357,6.4c2.106,0.437,1.902,0.381,10.236,2.126c0.107,0.218-0.004,0.584-0.156,0.641
		c-8.242-1.688-9.037-1.844-10.226-2.074c-0.542,2.201-1.001,4.146-1.422,6.372c3.526,0.765,6.911,1.41,10.348,2.146
		c-0.003,0.282-0.026,0.387-0.137,0.554c-7.762-1.332-15.395-3.29-23.12-4.794c-0.248,1.198-4.253,24.113-4.462,25.053
		c0.981-0.146,3.631-0.701,6.886-1.308c13.677-2.548,25.395,0.115,34.394,7.818c2.475,2.118,4.901,3.29,6.813,3.29
		c3.375,0,4.631,1.218,5.654,5.486c0.394,1.643,2.931,5.328,5.638,8.189c3.841,4.062,4.925,5.932,4.937,8.515
		c0.008,1.82,1.08,7.585,2.383,12.81s2.169,9.838,1.926,10.25c-1.115,1.895-2.12,0.342-2.724-4.209
		c-0.362-2.728-1.095-5.229-1.629-5.559s-0.976-2.262-0.981-4.291c-0.023-7.854-1.192-11.313-5.086-15.054
		c-2.091-2.009-4.746-5.786-5.899-8.396c-2.22-5.017-5.005-6.372-5.005-2.433c0,1.269-0.66,3.182-1.468,4.25
		c-1.9,2.513-1.912,4.881-0.032,6.441c2.115,1.755,1.906,9.09-0.5,17.5c-1.1,3.847-2,8.206-2,9.688c0,2.96-1.635,4.578-3.122,3.09
		c-0.599-0.598-0.048-3.873,1.487-8.863c1.34-4.353,2.646-10.008,2.902-12.567c0.441-4.419,0.229-4.909-4.233-9.712
		c-4.364-4.698-4.845-4.955-6.747-3.623c-1.682,1.178-1.961,2.202-1.561,5.744c0.464,4.121,0.223,4.6-5.509,10.924
		c-3.297,3.638-6.548,8.348-7.227,10.467c-1.503,4.702-2.647,6.096-3.942,4.803c-1.688-1.688,2.645-9.302,9.141-16.068
		c5.497-5.725,6.086-6.711,5.02-8.419c-0.664-1.063-1.209-2.627-1.209-3.474c0-0.846-1.041-1.934-2.315-2.418
		c-0.743-0.283-1.751-0.8-2.846-1.431c-1.094-0.63-2.274-1.374-3.361-2.11s-1.96-1.666-2.804-2.063
		c-2.586-1.219-1.951-1.599-6.303-1.658c-2.865-0.039-6.329,1.405-8.728,2.579l-5.212,2.55l-2.375,16.282
		c-1.417,8.955-2.673,15.877-2.924,17.25c-0.419,0.086-0.859-0.04-0.968-0.242c0.101-0.455,0.194-0.974,0.335-1.758
		c0.951-5.283,4.479-28.408,4.503-29.318c0.027-0.246,0.105-0.468,0.273-1.693c-1.367,0.518-2.914,0.988-4.117,1.342
		c-8.468,2.287-12.127,3.596-16.175,7.721l-3.638,4.186l1.511,8.429c2.531,10.373,2.944,14.091,1.612,14.54
		C62.552,142.2,61.772,137.469,60.426,130.697z M87.247,84.863c0.089-0.92,0.522-2.981,0.916-5.358l0.715-4.321l-3.318,0.321
		c-2.939,0.284-3.422,0.762-4.226,4.184c-0.695,2.957-0.718,4.178-0.04,5.154C83.103,85.19,85.987,85.143,87.247,84.863z
		 M57.144,78.278c-1.665-1.799-2.034-4.46-4.085-1.458c-1.518,2.221-3.136,3.021,1.679,3.505c0.737,0.074,4.35,0.69,3.482,0.058
		C58.287,79.737,57.675,78.853,57.144,78.278z M51.15,74.488c-1.062-0.221-2.11,0.207-2.6,0.441c0.16,0.697,0.103,1.008,0.576,2.104
		c0.379,0.877,0.563,1.317,0.913,1.491c0.293-0.337,0.603-0.809,1.261-1.698C52.619,75.042,52.603,74.79,51.15,74.488z"/>
	<path id="path2588" sodipodi:nodetypes="csscccssssccccssssccccssc" fill="#2E3192" d="M23.398,38.959
		c-3.629,4.446-6.802,9.037-9.092,13.337c-15.087,28.332-16.451,61.984-3.636,89.365c7.144,15.264,15.021,25.863,26.208,35.24
		c23.004,19.629,52.41,24.754,81.755,21.189c35.762-6.319,68.283-38.174,78.355-72.479c2.738-10.256,3.575-21.375,2.519-33.231
		c-1.479-16.609-6.112-31.017-14.138-44.004c-4.877-7.893-9.271-13.139-17.333-20.673C143.199,4.496,107.229-4.059,74.088,5.352
		c-9.004,2.557-18.487,6.899-27.708,12.787l-2.745,1.818C36.796,24.542,29.446,31.549,23.398,38.959z M35.508,47.472
		c0.425-0.528,0.863-1.04,1.305-1.557c17.056-20.008,44.046-31.712,69.589-29.599c6.949,0.575,16.559,2.664,24.538,5.307
		c19.324,6.401,38.542,24.514,47.067,44.354c10.512,24.466,9.658,51.103-2.354,74.255c-6.888,11.09-14.897,21.658-25.561,29.301
		c-25.493,18.094-59.205,20.595-88.066,6.544c-10.884-6.728-21.956-14.858-29.441-25.395
		c-10.852-15.813-15.531-30.239-15.914-49.282c-0.361-17.946,4.422-33.309,15.211-49.016C33.038,50.703,34.235,49.057,35.508,47.472
		z"/>
	<polygon id="rect2742" fill="#ACAAD3" points="59.77,11.268 68.179,14.676 64.276,23.331 55.867,19.923 	"/>
	<polygon id="rect2740" fill="#ACAAD3" points="73.357,6.55 81.261,11.005 76.284,19.09 68.379,14.634 	"/>
	<polygon id="rect2738" fill="#ACAAD3" points="87.463,3.463 94.71,8.924 88.708,16.28 81.461,10.819 	"/>
	<polygon id="rect2744" fill="#ACAAD3" points="101.877,2.596 108.293,9.013 101.326,15.462 94.909,9.046 	"/>
	<polygon id="rect2746" fill="#ACAAD3" points="116.246,3.661 121.765,10.863 114.011,16.342 108.492,9.14 	"/>
	<polygon id="rect2750" fill="#ACAAD3" points="143.701,11.734 147.27,20.077 138.402,23.471 134.834,15.128 	"/>
	
		<path id="path2770" sodipodi:type="arc" sodipodi:cx="18.804621" sodipodi:cy="13.975674" sodipodi:rx="1.8119612" sodipodi:ry="1.8009126" fill="#2E3192" d="
		M62.698,14.488c0,0.995-0.811,1.801-1.812,1.801c-1.001,0-1.812-0.806-1.813-1.801v0c0-0.995,0.811-1.801,1.812-1.801
		C61.886,12.687,62.698,13.493,62.698,14.488L62.698,14.488z"/>
	
		<path id="path2773" sodipodi:type="arc" sodipodi:cx="18.804621" sodipodi:cy="13.975674" sodipodi:rx="1.8119612" sodipodi:ry="1.8009126" fill="#2E3192" d="
		M64.667,19.862c0,0.995-0.811,1.801-1.812,1.801c-1,0-1.812-0.806-1.812-1.801v0c0-0.995,0.811-1.801,1.812-1.801
		C63.856,18.061,64.667,18.867,64.667,19.862C64.667,19.861,64.667,19.861,64.667,19.862z"/>
	
		<path id="path2783" sodipodi:type="arc" sodipodi:cx="18.804621" sodipodi:cy="13.975674" sodipodi:rx="1.8119612" sodipodi:ry="1.8009126" fill="#2E3192" d="
		M75.941,10.159c-0.156,0.982-1.083,1.651-2.072,1.495c-0.988-0.157-1.663-1.081-1.507-2.063v0c0.156-0.982,1.084-1.651,2.072-1.495
		C75.423,8.253,76.098,9.176,75.941,10.159C75.941,10.159,75.941,10.159,75.941,10.159z"/>
	
		<path id="path2785" sodipodi:type="arc" sodipodi:cx="18.804621" sodipodi:cy="13.975674" sodipodi:rx="1.8119612" sodipodi:ry="1.8009126" fill="#2E3192" d="
		M77.105,15.807c-0.156,0.982-1.083,1.651-2.072,1.494c-0.988-0.157-1.663-1.081-1.507-2.063c0,0,0,0,0-0.001
		c0.156-0.982,1.083-1.651,2.072-1.494S77.261,14.824,77.105,15.807L77.105,15.807z"/>
	
		<path id="path2789" sodipodi:type="arc" sodipodi:cx="18.804621" sodipodi:cy="13.975674" sodipodi:rx="1.8119612" sodipodi:ry="1.8009126" fill="#2E3192" d="
		M89.669,7.271c-0.156,0.982-1.083,1.651-2.072,1.494c-0.988-0.157-1.663-1.081-1.507-2.063c0,0,0,0,0,0
		c0.156-0.982,1.083-1.651,2.072-1.494C89.15,5.365,89.825,6.289,89.669,7.271C89.669,7.271,89.669,7.271,89.669,7.271z"/>
	
		<path id="path2791" sodipodi:type="arc" sodipodi:cx="18.804621" sodipodi:cy="13.975674" sodipodi:rx="1.8119612" sodipodi:ry="1.8009126" fill="#2E3192" d="
		M90.044,13.053c-0.156,0.982-1.083,1.651-2.072,1.494c-0.988-0.157-1.663-1.081-1.507-2.063c0,0,0,0,0,0
		c0.156-0.982,1.083-1.651,2.072-1.494C89.525,11.146,90.2,12.07,90.044,13.053C90.044,13.052,90.044,13.052,90.044,13.053z"/>
	
		<path id="path2793" sodipodi:type="arc" sodipodi:cx="18.804621" sodipodi:cy="13.975674" sodipodi:rx="1.8119612" sodipodi:ry="1.8009126" fill="#2E3192" d="
		M103.336,6.214c-0.156,0.982-1.084,1.651-2.072,1.495c-0.988-0.157-1.663-1.081-1.507-2.063v0c0.156-0.982,1.084-1.651,2.072-1.494
		C102.817,4.308,103.492,5.231,103.336,6.214C103.336,6.214,103.336,6.214,103.336,6.214z"/>
	
		<path id="path2795" sodipodi:type="arc" sodipodi:cx="18.804621" sodipodi:cy="13.975674" sodipodi:rx="1.8119612" sodipodi:ry="1.8009126" fill="#2E3192" d="
		M103.208,12.391c-0.156,0.982-1.084,1.651-2.072,1.495c-0.988-0.157-1.663-1.081-1.507-2.063v0
		c0.156-0.982,1.084-1.651,2.072-1.494C102.689,10.484,103.364,11.408,103.208,12.391C103.208,12.391,103.208,12.391,103.208,12.391
		z"/>
	
		<path id="path2797" sodipodi:type="arc" sodipodi:cx="18.804621" sodipodi:cy="13.975674" sodipodi:rx="1.8119612" sodipodi:ry="1.8009126" fill="#2E3192" d="
		M116.307,13.131c-0.156,0.982-1.084,1.651-2.072,1.494c-0.988-0.157-1.664-1.081-1.508-2.063c0,0,0,0,0,0
		c0.156-0.982,1.084-1.651,2.072-1.494C115.787,11.224,116.462,12.148,116.307,13.131C116.307,13.13,116.307,13.13,116.307,13.131z"
		/>
	
		<path id="path2799" sodipodi:type="arc" sodipodi:cx="18.804621" sodipodi:cy="13.975674" sodipodi:rx="1.8119612" sodipodi:ry="1.8009126" fill="#2E3192" d="
		M117.475,7.303c-0.156,0.982-1.084,1.651-2.072,1.494c-0.988-0.157-1.662-1.081-1.507-2.063v0c0.156-0.982,1.084-1.651,2.072-1.494
		C116.956,5.396,117.631,6.32,117.475,7.303C117.475,7.302,117.475,7.302,117.475,7.303z"/>
	
		<path id="path2801" sodipodi:type="arc" sodipodi:cx="18.804621" sodipodi:cy="13.975674" sodipodi:rx="1.8119612" sodipodi:ry="1.8009126" fill="#2E3192" d="
		M144.126,15.287c-0.156,0.982-1.083,1.651-2.072,1.494c-0.988-0.157-1.663-1.081-1.507-2.063c0,0,0,0,0,0
		c0.156-0.982,1.084-1.651,2.072-1.494C143.607,13.38,144.282,14.304,144.126,15.287C144.126,15.287,144.126,15.287,144.126,15.287z
		"/>
	
		<path id="path2803" sodipodi:type="arc" sodipodi:cx="18.804621" sodipodi:cy="13.975674" sodipodi:rx="1.8119612" sodipodi:ry="1.8009126" fill="#2E3192" d="
		M141.639,20.459c-0.156,0.982-1.084,1.651-2.072,1.494c-0.988-0.157-1.663-1.081-1.507-2.063v0
		c0.155-0.982,1.083-1.651,2.071-1.494C141.12,18.552,141.795,19.476,141.639,20.459C141.639,20.458,141.639,20.458,141.639,20.459z
		"/>
	
		<path id="path2805" sodipodi:type="arc" sodipodi:cx="18.804621" sodipodi:cy="13.975674" sodipodi:rx="1.8119612" sodipodi:ry="1.8009126" fill="#2E3192" d="
		M128.871,15.878c-0.156,0.982-1.084,1.651-2.072,1.494c-0.988-0.157-1.662-1.081-1.506-2.063c0,0,0,0,0-0.001
		c0.156-0.982,1.083-1.651,2.072-1.494C128.354,13.972,129.027,14.895,128.871,15.878L128.871,15.878z"/>
	
		<path id="path2807" sodipodi:type="arc" sodipodi:cx="18.804621" sodipodi:cy="13.975674" sodipodi:rx="1.8119612" sodipodi:ry="1.8009126" fill="#2E3192" d="
		M131.2,10.232c-0.156,0.982-1.084,1.651-2.072,1.494c-0.988-0.157-1.663-1.081-1.507-2.063c0,0,0,0,0-0.001
		c0.156-0.982,1.084-1.651,2.072-1.494C130.682,8.326,131.355,9.25,131.2,10.232L131.2,10.232z"/>
	<path id="path5764" fill="#ACAAD3" d="M124.072,14.878c-1.022-2.115-1.874-3.915-1.891-4c-0.027-0.134,8.044-3.822,8.364-3.822
		c0.224,0,3.933,7.807,3.778,7.955c-0.154,0.147-8.121,3.712-8.297,3.712C125.975,18.723,125.096,16.993,124.072,14.878
		L124.072,14.878z M128.032,17.131c1.085-0.661,1.224-1.855,0.322-2.757c-0.651-0.652-1.308-0.771-2.144-0.39
		c-0.947,0.432-1.256,1.849-0.59,2.697C126.291,17.532,127.121,17.687,128.032,17.131L128.032,17.131z M130.768,11.125
		c1.084-1.202,0.207-3.008-1.459-3.008c-0.411,0-0.735,0.17-1.188,0.624c-0.561,0.561-0.614,0.696-0.528,1.339
		C127.82,11.775,129.641,12.375,130.768,11.125z"/>
	<path id="path2631" fill="#FFFFFF" d="M19.24,48.494l-0.971,1.761l3.242,1.889l-0.657,1.155c-0.445,0.802-0.736,1.437-0.889,1.907
		c-0.106,0.349-0.133,0.74-0.095,1.16c0.039,0.42,0.187,0.82,0.438,1.224c0.251,0.403,0.643,0.751,1.17,1.056
		c0.684,0.395,1.314,0.543,1.935,0.454c0.62-0.089,1.145-0.34,1.552-0.769c0.268-0.277,0.713-0.942,1.311-2.019l1.572-2.858
		L19.24,48.494z"/>
	<path id="path2627" fill="#2E3192" d="M22.964,52.97l2.432,1.417l-0.458,0.866c-0.354,0.639-0.614,1.052-0.77,1.241
		c-0.21,0.258-0.484,0.416-0.791,0.485c-0.308,0.07-0.613,0.027-0.926-0.154c-0.254-0.147-0.439-0.371-0.557-0.615
		c-0.117-0.244-0.146-0.498-0.105-0.785c0.041-0.288,0.244-0.776,0.632-1.474L22.964,52.97z"/>
	<path id="path2625" fill="#FFFFFF" d="M14.424,57.417l-2.785,7.118l1.505,0.625l2.053-5.208l2.436,1.04l-1.829,4.688l1.505,0.653
		l1.83-4.716l1.97,0.861l-1.969,5.035l1.532,0.654l2.702-6.944L14.424,57.417z"/>
	<path id="path2623" fill="#FFFFFF" d="M189.016,61.018l-7.396,3.054l-1.035-2.734l-1.501,0.616l2.814,7.339l1.5-0.616l-1.062-2.734
		l7.396-3.083L189.016,61.018z"/>
	<path id="path2619" fill="#FFFFFF" d="M13.665,67.253c-0.835-0.031-1.616,0.135-2.294,0.492c-1.085,0.571-1.794,1.509-2.147,2.775
		c-0.286,1.023-0.284,1.931,0.03,2.739c0.315,0.808,0.956,1.493,1.908,2.072l1.104-1.701c-0.647-0.357-1.082-0.75-1.301-1.21
		s-0.241-0.944-0.098-1.456c0.194-0.693,0.586-1.182,1.214-1.472c0.628-0.289,1.542-0.285,2.736,0.055
		c1.126,0.32,1.897,0.78,2.277,1.362c0.38,0.583,0.459,1.236,0.261,1.942c-0.143,0.512-0.409,0.885-0.792,1.162
		c-0.383,0.277-0.822,0.413-1.343,0.386l-0.075,2.025c0.817-0.002,1.489-0.147,2.015-0.466c0.887-0.534,1.484-1.384,1.81-2.55
		c0.373-1.335,0.228-2.532-0.414-3.598c-0.641-1.067-1.729-1.838-3.301-2.285C14.696,67.367,14.166,67.272,13.665,67.253z"/>
	<path id="path2615" fill="#FFFFFF" d="M194.258,76.92l-2.535,1.665c-0.652,0.43-1.159,0.808-1.504,1.142
		c-0.344,0.334-0.527,0.722-0.595,1.176c-0.249-0.327-0.503-0.536-0.75-0.646c-0.248-0.11-0.56-0.214-0.917-0.29
		c-0.674-0.143-1.118-0.259-1.34-0.347c-0.223-0.088-0.389-0.203-0.514-0.375c-0.126-0.173-0.227-0.466-0.279-0.868l-0.037-0.286
		l-1.465,0.21c0.024,0.146,0.033,0.213,0.039,0.257c0.121,0.906,0.343,1.568,0.657,1.941c0.315,0.377,1.024,0.7,2.148,0.968
		c0.884,0.214,1.437,0.378,1.642,0.509c0.205,0.131,0.348,0.42,0.451,0.852l-4.189,0.532l0.258,1.97l9.87-1.273l-0.258-1.97
		l-4.331,0.551c-0.04-0.332,0.01-0.579,0.109-0.756c0.101-0.177,0.369-0.421,0.82-0.736c0.256-0.177,0.388-0.284,0.42-0.311
		c0.096-0.071,0.175-0.105,0.209-0.127l2.41-1.503L194.258,76.92z"/>
	<path id="path2613" fill="#FFFFFF" d="M7.33,77.099l-0.316,1.85l7.841,1.311l-0.631,3.593l-7.841-1.311l-0.316,1.85l9.415,1.567
		l1.263-7.292L7.33,77.099z"/>
	<path id="path2611" fill="#FFFFFF" d="M196.32,87.352l-9.73-0.067l-0.018,1.794l6.463,3.634l-6.469-0.043l-0.029,1.665l9.759,0.07
		l0.017-1.794l-6.353-3.623l6.356,0.057L196.32,87.352z"/>
	<path id="path2609" fill="#FFFFFF" d="M15.343,87.083l-7.016,3.113c-0.519-0.22-0.841-0.448-0.988-0.657s-0.21-0.53-0.179-0.987
		c0.016-0.226,0.024-0.481,0.061-0.759l-1.396-0.098c-0.095,0.323-0.161,0.769-0.2,1.349c-0.041,0.59,0.117,1.095,0.497,1.497
		c0.38,0.402,0.957,0.812,1.709,1.227l6.925,3.81l0.153-2.053l-4.763-2.298l5.043-1.922L15.343,87.083z"/>
	<path id="path2607" fill="#FFFFFF" d="M187.406,97.075l-0.143,6.59l5.475,0.134l1.635,0.016c0.426,0.01,0.709,0.086,0.814,0.225
		c0.105,0.14,0.138,0.417,0.129,0.815l-0.004,0.407l1.498,0.041c0.057-0.586,0.088-0.997,0.093-1.22
		c0.015-0.634-0.116-1.083-0.368-1.387c-0.253-0.304-0.596-0.521-1.057-0.607c-0.463-0.087-1.279-0.133-2.451-0.159l-4.111-0.094
		l0.08-2.82l7.953,0.158l0.044-1.898L187.406,97.075z"/>
	<path id="path2605" fill="#FFFFFF" d="M14.616,96.619l-9.69-0.02l0.005,4.604c-0.001,0.807,0.084,1.428,0.255,1.864
		s0.478,0.821,0.944,1.163s1.03,0.52,1.686,0.521c0.638,0.001,1.197-0.182,1.673-0.519c0.476-0.338,0.809-0.743,0.986-1.222
		c0.176-0.478,0.264-1.059,0.265-1.785l-0.003-2.639l2.257,0.012l-0.022,5.305l1.624,0.014L14.616,96.619z"/>
	<path id="path2603" fill="#2E3192" d="M9.177,98.553l-0.062,1.992c-0.026,0.774-0.151,1.318-0.367,1.632
		c-0.215,0.313-0.55,0.475-0.999,0.459c-0.308-0.011-0.545-0.118-0.75-0.31s-0.343-0.398-0.394-0.648
		c-0.051-0.25-0.064-0.687-0.044-1.297l0.056-1.908L9.177,98.553z"/>
	<path id="path2601" fill="#FFFFFF" d="M186.537,115.055l-0.564,1.842l4.068,3.102l-5.181,0.701l-0.604,1.994l7.28-1.399
		c0.449,0.312,0.758,0.598,0.855,0.821c0.098,0.223,0.053,0.523-0.07,0.937c-0.061,0.204-0.131,0.438-0.222,0.685l1.321,0.389
		c0.156-0.276,0.316-0.658,0.473-1.184c0.158-0.533,0.107-1.021-0.172-1.471c-0.279-0.448-0.742-0.941-1.372-1.481L186.537,115.055z
		"/>
	<path id="path2599" fill="#FFFFFF" d="M184.22,123.545h-0.028l-3.045,7.121l9.244,3.72l0.754-1.836l-7.689-3.063l1.508-3.505
		l7.661,3.063l0.782-1.809L184.22,123.545z"/>
	<path id="path2597" fill="#FFFFFF" d="M6.654,106.262l-1.605-0.026c-0.052,0.562-0.057,0.937-0.059,1.149
		c-0.007,0.608,0.13,1.061,0.402,1.35s0.638,0.48,1.129,0.562s1.366,0.129,2.607,0.146l4.321,0.057l-0.017,2.71L4.994,112.1
		l-0.032,1.813l10.157,0.15l0.081-6.334l-5.812-0.064l-1.724-0.017c-0.452-0.007-0.756-0.074-0.87-0.207
		c-0.114-0.134-0.156-0.404-0.152-0.786L6.654,106.262z"/>
	<path id="path2593" fill="#FFFFFF" d="M16.675,115.74l-10.081,1.543l0.343,1.869l7.27,2.705l-6.582,1.004l0.324,1.758l10.081-1.543
		l-0.343-1.867l-7.417-2.691l6.732-1.045L16.675,115.74z"/>
	<path id="path2591" fill="#FFFFFF" d="M18.328,124.771l-8.772,3.139l0.583,1.881l3.838-1.353c0.092,0.321,0.1,0.577,0.039,0.771
		c-0.061,0.194-0.264,0.485-0.621,0.882c-0.202,0.224-0.334,0.35-0.36,0.382c-0.075,0.089-0.112,0.136-0.139,0.165l-1.932,1.93
		l0.67,2.229l2.021-2.126c0.519-0.549,0.891-1.031,1.147-1.427c0.256-0.396,0.396-0.831,0.381-1.293
		c0.282,0.277,0.541,0.461,0.784,0.522c0.244,0.062,0.521,0.092,0.859,0.099c0.634,0.014,1.061,0.045,1.277,0.091
		c0.217,0.046,0.392,0.136,0.535,0.282c0.143,0.147,0.286,0.43,0.402,0.818l0.065,0.26l1.307-0.479
		c-0.046-0.139-0.079-0.219-0.091-0.261c-0.262-0.874-0.554-1.474-0.902-1.783c-0.35-0.314-1.053-0.477-2.118-0.53
		c-0.838-0.046-1.377-0.129-1.585-0.22s-0.397-0.333-0.563-0.74l3.733-1.33L18.328,124.771z"/>
	<path id="path2589" fill="#FFFFFF" d="M182.434,133.913c-0.344,0.005-0.658,0.063-0.947,0.157
		c-0.976,0.318-1.758,0.997-2.324,2.037c-0.648,1.191-0.76,2.35-0.365,3.503c0.393,1.153,1.292,2.129,2.724,2.892
		c1.353,0.722,2.624,0.933,3.801,0.621c1.177-0.311,2.071-1.043,2.687-2.172c0.498-0.913,0.686-1.802,0.553-2.639
		c-0.133-0.836-0.596-1.623-1.395-2.379l-1.458,1.378c0.552,0.479,0.9,0.972,1.015,1.456c0.114,0.485,0.041,0.961-0.207,1.418
		c-0.338,0.618-0.839,0.985-1.512,1.126c-0.672,0.141-1.573-0.086-2.66-0.665c-1.025-0.547-1.658-1.135-1.901-1.771
		s-0.187-1.261,0.156-1.891c0.249-0.457,0.604-0.783,1.037-0.965c0.432-0.181,0.89-0.207,1.39-0.069l0.518-1.915
		C183.146,133.948,182.775,133.908,182.434,133.913z"/>
	<path id="path2583" fill="#FFFFFF" d="M176.951,141.076l-3.893,6.264l7.833,5.618l4.001-6.409l-1.332-0.945l-2.939,4.697
		l-2.131-1.537l2.64-4.205l-1.332-0.946l-2.613,4.204l-1.759-1.242l2.831-4.553L176.951,141.076z"/>
	<path id="path2581" fill="#FFFFFF" d="M27.717,148.079c-1.196-0.031-2.448,0.4-3.739,1.308c-1.395,0.981-2.224,2.152-2.496,3.477
		c-0.272,1.324,0.001,2.579,0.828,3.758c0.667,0.953,1.45,1.577,2.354,1.867c0.904,0.289,1.928,0.225,3.082-0.189l-0.658-2.131
		c-0.754,0.307-1.4,0.393-1.943,0.262c-0.542-0.131-0.982-0.441-1.316-0.918c-0.453-0.646-0.574-1.328-0.381-2.066
		c0.193-0.738,0.841-1.506,1.961-2.294c1.056-0.743,1.961-1.083,2.72-1.005s1.376,0.453,1.837,1.111
		c0.334,0.477,0.481,0.983,0.448,1.504s-0.243,1.004-0.629,1.432l1.681,1.453c0.568-0.7,0.878-1.383,0.974-2.053
		c0.166-1.129-0.132-2.234-0.893-3.321c-0.872-1.243-1.986-1.968-3.337-2.157C28.04,148.092,27.888,148.084,27.717,148.079z"/>
	<path id="path2569" sodipodi:nodetypes="ccccccccccccc" fill="#FFFFFF" d="M38.829,161.201l-0.095,5.462l-5.45,2.101l1.518,1.605
		l3.964-1.497l-0.055,5.413l1.839-1.145l0.243-4.902l4.899-1.97l-1.392-1.577l-3.553,1.459l0.125-3.896L38.829,161.201z"/>
	<path id="path2565" fill="#FFFFFF" d="M155.576,167.448l-1.992,1.255l0.079,3.762l-3.452-1.627l-1.994,1.284l5.229,2.343
		l-0.038,6.233l2.055-1.307l-0.018-4.103l3.789,1.717l2.055-1.307l-5.707-2.476L155.576,167.448z"/>
	<path id="path2555" fill="#FFFFFF" d="M62.428,177.776c-0.841,0.498-1.619,1.077-2.34,1.782c-0.83,0.813-1.498,1.763-1.991,2.854
		c-0.397,0.879-0.639,1.854-0.749,2.924c-0.11,1.07-0.068,2.184,0.139,3.305l1.137,0.469c-0.02-0.863,0.005-1.518,0.042-1.96
		c0.056-0.671,0.157-1.36,0.33-2.06c0.173-0.698,0.406-1.36,0.686-1.979c0.406-0.898,0.893-1.707,1.458-2.426
		c0.565-0.718,1.369-1.52,2.425-2.439L62.428,177.776z"/>
	<path id="path2553" fill="#FFFFFF" d="M137.438,178.541c-0.514,0.037-1.039,0.199-1.584,0.449
		c-1.248,0.575-2.092,1.449-2.493,2.652c-0.401,1.201-0.253,2.568,0.405,4.104c0.624,1.451,1.487,2.418,2.608,2.904
		c1.121,0.485,2.284,0.462,3.468-0.083c0.956-0.44,1.629-1.038,2.041-1.813c0.412-0.775,0.523-1.745,0.359-2.876l-1.972,0.243
		c0.14,0.744,0.109,1.358-0.101,1.831c-0.209,0.473-0.557,0.816-1.035,1.037c-0.648,0.299-1.295,0.289-1.913-0.019
		s-1.171-1.03-1.671-2.197c-0.473-1.099-0.62-1.999-0.42-2.679c0.201-0.681,0.656-1.166,1.317-1.471
		c0.478-0.221,0.935-0.284,1.388-0.161c0.453,0.122,0.818,0.396,1.129,0.825l1.594-1.265c-0.521-0.645-1.051-1.058-1.625-1.266
		C138.449,178.582,137.952,178.504,137.438,178.541z"/>
	<path id="path2679" fill="#FFFFFF" d="M82.041,185.979l1.82,6.33c-0.309,0.566-0.901,0.957-1.15,1.099
		c-0.249,0.143-0.61,0.175-1.109,0.083c-0.247-0.045-0.528-0.088-0.83-0.164l-0.292,1.592c0.343,0.148,0.84,0.271,1.475,0.389
		c0.644,0.118,1.207-0.006,1.697-0.391c0.491-0.383,1.003-0.99,1.557-1.797c0.858-1.275,3.047-4.015,4.165-5.492
		c-0.771-0.85-0.629-0.701-1.269-1.385l-3.088,4.359l-1.521-5.391"/>
	<path id="path2675" sodipodi:nodetypes="cssccccccsssccccscssc" fill="#FFFFFF" d="M80.332,184.243
		c-0.513,0.095-2.137,0.113-2.971,1.528c-0.484,0.822-1.022,1.173-1.244,1.311c-0.222,0.137-0.566,0.191-1.048,0.107l1.271-4.191
		l-2.089-0.578l-3.016,9.818l2.089,0.549l1.333-4.279c0.354,0.102,0.6,0.251,0.735,0.419c0.136,0.167,0.239,0.507,0.36,1.062
		c0.067,0.313,0.136,0.518,0.149,0.561c0.03,0.119,0.021,0.193,0.029,0.234l0.466,2.856l2.488,0.7l-0.619-3.093
		c-0.151-0.79-0.318-1.424-0.506-1.886c-0.188-0.463-0.484-0.814-0.914-1.067c0.44-0.097,0.771-0.245,0.989-0.432
		c0.219-0.187,0.611-0.351,0.685-0.728c0.221-1.135,1.669-1.055,1.859-1.217"/>
	<path id="path2547" sodipodi:nodetypes="cccccccc" fill="#FFFFFF" d="M89.637,188.599c0.693,0.005,1.966,0.058,2.821,0.025
		l-0.041,8.013l2.054,0.011l0.079-8.017l2.956,0.016l-0.042-1.938l-7.838-0.141"/>
	<path id="path2545" fill="#FFFFFF" d="M119.183,184.897l-1.169,0.202c0.766,1.161,1.332,2.175,1.684,3.021
		c0.352,0.845,0.592,1.761,0.752,2.746c0.08,0.484,0.151,0.939,0.169,1.411c0.019,0.471-0.005,0.981-0.04,1.516
		c-0.035,0.533-0.094,1.018-0.168,1.434c-0.076,0.417-0.213,1.01-0.432,1.805l1.194-0.201c0.527-1.199,0.839-2.367,0.966-3.527
		c0.108-1.035,0.089-1.98-0.052-2.846c-0.167-1.027-0.479-2.021-0.983-2.962C120.6,186.555,119.945,185.686,119.183,184.897z"/>
	<path id="path2541" fill="#FFFFFF" d="M106.328,186.898l-1.789,0.012l-3.537,6.447l-0.041-6.398l-1.689,0.011l0.088,9.612
		l1.789-0.01l3.536-6.31l0.043,6.261l1.663-0.012L106.328,186.898z"/>
	<path id="path2539" sodipodi:nodetypes="ccccccccc" fill="#FFFFFF" d="M129.412,185.934l-1.592-0.051l-1.245,0.722l-0.134,1.626
		l0.803,1.408l1.6-0.091l1.237-0.628l0.01-1.67L129.412,185.934z"/>
	<path id="path2579" fill="#FFFFFF" d="M172.844,150.693c-0.66-0.016-1.256,0.142-1.753,0.475c-0.325,0.216-0.872,0.773-1.675,1.68
		l-2.127,2.386l8.126,5.985l1.317-1.492l-3.062-2.244l0.868-0.977c0.599-0.674,0.993-1.215,1.23-1.629
		c0.17-0.307,0.275-0.667,0.307-1.063c0.031-0.396-0.063-0.791-0.256-1.206c-0.193-0.414-0.528-0.819-1.026-1.186
		C174.148,150.947,173.505,150.708,172.844,150.693z"/>
	<path id="path2654" fill="#2E3192" d="M172.322,156.654l-2.211-1.749l0.572-0.793c0.439-0.581,0.753-0.954,0.934-1.118
		c0.244-0.226,0.537-0.343,0.852-0.369c0.313-0.025,0.61,0.062,0.895,0.285c0.231,0.182,0.383,0.43,0.466,0.688
		c0.083,0.259,0.075,0.514-0.005,0.793c-0.08,0.277-0.349,0.732-0.829,1.369L172.322,156.654z"/>
	<path id="path2642" fill="#FFFFFF" d="M186.773,107.256l-0.014,6.383l9.135,0.541l0.029-4.332c0.009-0.76-0.064-1.354-0.224-1.767
		c-0.158-0.413-0.47-0.804-0.909-1.128c-0.439-0.325-0.938-0.46-1.561-0.464c-0.607-0.005-1.129,0.139-1.584,0.456
		c-0.455,0.316-0.782,0.701-0.955,1.152c-0.172,0.449-0.243,1.025-0.251,1.711l-0.049,2.471l-2.147,0.002l0.084-5.034
		L186.773,107.256z"/>
	<path id="path2656" fill="#2E3192" d="M194.67,112.357l-2.805-0.003l-0.027-0.982c-0.004-0.732,0.018-1.222,0.061-1.465
		c0.057-0.33,0.217-0.604,0.449-0.821c0.232-0.215,0.52-0.332,0.879-0.332c0.292-0.002,0.563,0.1,0.783,0.252
		c0.222,0.153,0.371,0.359,0.477,0.629s0.168,0.797,0.174,1.598L194.67,112.357z"/>
	<path id="path2551" fill="#FFFFFF" d="M66.141,179.855c-0.356,0.034-0.711,0.159-1.036,0.399c-0.433,0.319-0.745,0.765-0.965,1.335
		c-0.253,0.654-0.297,1.295-0.124,1.927s0.613,1.206,1.36,1.708c-0.459,0.06-0.862,0.188-1.221,0.367
		c-0.358,0.18-0.878,0.532-1.571,1.066l-1.759,1.327l2.082,0.955l2.024-1.471c0.885-0.642,1.49-0.987,1.783-1.063
		c0.293-0.076,0.722,0.025,1.268,0.274l0.343,0.149l-1.518,3.9l1.739,0.806l3.605-9.373l-3.636-1.671
		c-0.858-0.393-1.542-0.587-2.032-0.633C66.362,179.848,66.259,179.844,66.141,179.855z"/>
	<path id="path2658" fill="#2E3192" d="M70.015,182.625l-1.069,2.494l-0.924-0.324c-0.683-0.256-1.13-0.45-1.339-0.574
		c-0.285-0.168-0.48-0.408-0.593-0.691s-0.111-0.58,0.024-0.9c0.11-0.261,0.308-0.465,0.534-0.608
		c0.226-0.143,0.474-0.202,0.765-0.2s0.805,0.133,1.552,0.413L70.015,182.625z"/>
	<path id="path2543" fill="#FFFFFF" d="M116.145,185.868l-3.688,0.446c-0.865,0.1-1.512,0.254-1.932,0.462
		c-0.421,0.208-0.725,0.547-0.949,1.038c-0.225,0.49-0.314,1.043-0.262,1.638c0.061,0.685,0.274,1.255,0.676,1.704
		s1.028,0.676,1.848,0.725c-0.354,0.283-0.653,0.593-0.874,0.926s-0.507,0.914-0.856,1.717l-0.884,2.029l2.104-0.234l1.06-2.281
		c0.463-0.992,0.795-1.589,1.004-1.802c0.211-0.212,0.591-0.35,1.142-0.413l0.371-0.053l0.358,4.077l1.731-0.182L116.145,185.868z"
		/>
	<path id="path2660" fill="#2E3192" d="M114.641,187.246l0.369,2.82l-0.955,0.158c-0.715,0.102-1.197,0.145-1.439,0.133
		c-0.33-0.013-0.619-0.137-0.861-0.342c-0.241-0.205-0.393-0.479-0.441-0.84c-0.04-0.295,0.023-0.579,0.143-0.822
		s0.301-0.42,0.551-0.562c0.249-0.142,0.756-0.274,1.537-0.387L114.641,187.246z"/>
	<path id="path2563" fill="#FFFFFF" d="M49.517,168.696l-9.729,6.375l1.896,1.362l2.139-1.511l3.549,2.534l-0.67,2.557l1.928,1.393
		l2.753-11.38L49.517,168.696z"/>
	<path id="path2681" sodipodi:nodetypes="ccccc" fill="#2E3192" d="M48.285,176.162l-3.176-2.316l3.772-3.025l0.827,0.576
		L48.285,176.162z"/>
	<path id="path2587" fill="#FFFFFF" d="M22.444,135.476l-10.726,0.277l0.843,1.898l2.4-0.118l1.565,3.537l-1.753,1.613l0.867,1.956
		l7.621-7.295L22.444,135.476z"/>
	<path id="path2683" sodipodi:nodetypes="ccccc" fill="#2E3192" d="M17.833,140.572l-1.614-3.251l4.727-0.645l0.433,0.826
		L17.833,140.572z"/>
	<path id="path2633" fill="#FFFFFF" d="M182.934,49.441l-6.729,8.094l0.945,1.851l10.32-1.204l-0.973-1.851l-2.312,0.318
		l-1.81-3.474l1.556-1.798L182.934,49.441z"/>
	<path id="path2685" sodipodi:nodetypes="ccccc" fill="#2E3192" d="M181.405,54.195l1.724,2.967l-4.73,0.649l-0.461-0.754
		L181.405,54.195z"/>
	<path id="path2621" fill="#FFFFFF" d="M191.05,66.117l-8.653,6.457l0.589,1.999l10.872,0.947l-0.59-1.999l-2.458-0.164
		l-1.123-3.744l1.98-1.413L191.05,66.117z"/>
	<path id="path2687" sodipodi:nodetypes="ccccc" fill="#2E3192" d="M188.691,70.116l0.998,3.493l-4.233-0.247l-0.217-0.839
		L188.691,70.116z"/>
	<path id="path2559" fill="#FFFFFF" d="M144.834,174.141l-1.91,0.986l1.096,10.887l1.91-0.986l-0.293-2.467l3.581-1.846l1.818,1.654
		l1.94-1.014L144.834,174.141z"/>
	<path id="path2689" sodipodi:nodetypes="ccccc" fill="#2E3192" d="M148.352,179.34l-3.184,1.695l-0.934-4.306l0.808-0.452
		L148.352,179.34z"/>
	<path id="path2571" sodipodi:nodetypes="ccccccccc" fill="#FFFFFF" d="M159.299,163.436l-1.338,1.398l3.93,10.224l1.512-1.5
		l-0.949-2.296l2.856-2.823l2.126,1.089l1.24-1.406L159.299,163.436z"/>
	<path id="path2691" sodipodi:nodetypes="ccccc" fill="#2E3192" d="M164.16,167.602l-2.348,2.262l-2.059-3.855l0.464-0.576
		L164.16,167.602z"/>
	<path id="path2575" fill="#FFFFFF" d="M36.169,156.567l-10.938,3.927l1.523,1.764l2.442-0.945l2.834,3.277l-1.223,2.332
		l1.554,1.797l5.332-10.387L36.169,156.567z"/>
	<path id="path2693" sodipodi:nodetypes="ccccc" fill="#2E3192" d="M33.34,163.678l-2.707-3.008l4.392-2.256l0.71,0.758
		L33.34,163.678z"/>
</g>
</svg>
